<svg width="338" height="88" viewBox="0 0 338 88" fill="none" xmlns="http://www.w3.org/2000/svg">
<path d="M111 14V44V74H131V64H201L200.5 74H221V14H201V24H131V14H111Z" fill="#EFF3E0" stroke="black"/>
<path d="M261.854 83.8536C262.049 83.6583 262.049 83.3417 261.854 83.1464L258.672 79.9645C258.476 79.7692 258.16 79.7692 257.964 79.9645C257.769 80.1597 257.769 80.4763 257.964 80.6716L260.793 83.5L257.964 86.3284C257.769 86.5237 257.769 86.8403 257.964 87.0355C258.16 87.2308 258.476 87.2308 258.672 87.0355L261.854 83.8536ZM231 54.5C238.565 54.5 242.166 56.3305 243.932 58.8931C245.733 61.506 245.75 65.019 245.75 68.75C245.75 72.394 245.733 76.256 247.745 79.1744C249.791 82.143 253.815 84 261.5 84V83C253.935 83 250.334 81.1695 248.568 78.6069C246.767 75.994 246.75 72.481 246.75 68.75C246.75 65.106 246.767 61.244 244.755 58.3256C242.709 55.357 238.685 53.5 231 53.5V54.5Z" fill="black"/>
<path d="M261.854 3.64645C262.049 3.84171 262.049 4.15829 261.854 4.35355L258.672 7.53553C258.476 7.7308 258.16 7.7308 257.964 7.53553C257.769 7.34027 257.769 7.02369 257.964 6.82843L260.793 4L257.964 1.17157C257.769 0.976311 257.769 0.659728 257.964 0.464466C258.16 0.269204 258.476 0.269204 258.672 0.464466L261.854 3.64645ZM231 33C238.565 33 242.166 31.1695 243.932 28.6069C245.733 25.994 245.75 22.481 245.75 18.75C245.75 15.106 245.733 11.244 247.745 8.32562C249.791 5.35703 253.815 3.5 261.5 3.5V4.5C253.935 4.5 250.334 6.33047 248.568 8.89313C246.767 11.506 246.75 15.019 246.75 18.75C246.75 22.394 246.767 26.256 244.755 29.1744C242.709 32.143 238.685 34 231 34V33Z" fill="black"/>
<path d="M262.854 43.6464C263.049 43.8417 263.049 44.1583 262.854 44.3536L259.672 47.5355C259.476 47.7308 259.16 47.7308 258.964 47.5355C258.769 47.3403 258.769 47.0237 258.964 46.8284L261.793 44L258.964 41.1716C258.769 40.9763 258.769 40.6597 258.964 40.4645C259.16 40.2692 259.476 40.2692 259.672 40.4645L262.854 43.6464ZM231 43.5C231.021 43.5 231.043 43.5 231.064 43.5C231.086 43.5 231.107 43.5 231.128 43.5C231.15 43.5 231.171 43.5 231.192 43.5C231.213 43.5 231.235 43.5 231.256 43.5C231.277 43.5 231.298 43.5 231.319 43.5C231.34 43.5 231.361 43.5 231.382 43.5C231.403 43.5 231.424 43.5 231.445 43.5C231.466 43.5 231.487 43.5 231.507 43.5C231.528 43.5 231.549 43.5 231.57 43.5C231.59 43.5 231.611 43.5 231.632 43.5C231.652 43.5 231.673 43.5 231.693 43.5C231.714 43.5 231.734 43.5 231.755 43.5C231.775 43.5 231.796 43.5 231.816 43.5C231.837 43.5 231.857 43.5 231.877 43.5C231.898 43.5 231.918 43.5 231.938 43.5C231.958 43.5 231.978 43.5 231.999 43.5C232.019 43.5 232.039 43.5 232.059 43.5C232.079 43.5 232.099 43.5 232.119 43.5C232.139 43.5 232.159 43.5 232.179 43.5C232.199 43.5 232.219 43.5 232.238 43.5C232.258 43.5 232.278 43.5 232.298 43.5C232.318 43.5 232.337 43.5 232.357 43.5C232.377 43.5 232.396 43.5 232.416 43.5C232.435 43.5 232.455 43.5 232.474 43.5C232.494 43.5 232.513 43.5 232.533 43.5C232.552 43.5 232.572 43.5 232.591 43.5C232.611 43.5 232.63 43.5 232.649 43.5C232.668 43.5 232.688 43.5 232.707 43.5C232.726 43.5 232.745 43.5 232.764 43.5C232.784 43.5 232.803 43.5 232.822 43.5C232.841 43.5 232.86 43.5 232.879 43.5C232.898 43.5 232.917 43.5 232.936 43.5C232.955 43.5 232.974 43.5 232.992 43.5C233.011 43.5 233.03 43.5 233.049 43.5C233.068 43.5 233.086 43.5 233.105 43.5C233.124 43.5 233.143 43.5 233.161 43.5C233.18 43.5 233.198 43.5 233.217 43.5C233.236 43.5 233.254 43.5 233.273 43.5C233.291 43.5 233.31 43.5 233.328 43.5C233.347 43.5 233.365 43.5 233.383 43.5C233.402 43.5 233.42 43.5 233.438 43.5C233.457 43.5 233.475 43.5 233.493 43.5C233.511 43.5 233.53 43.5 233.548 43.5C233.566 43.5 233.584 43.5 233.602 43.5C233.62 43.5 233.638 43.5 233.656 43.5C233.674 43.5 233.692 43.5 233.71 43.5C233.728 43.5 233.746 43.5 233.764 43.5C233.782 43.5 233.8 43.5 233.818 43.5C233.836 43.5 233.853 43.5 233.871 43.5C233.889 43.5 233.907 43.5 233.924 43.5C233.942 43.5 233.96 43.5 233.977 43.5C233.995 43.5 234.013 43.5 234.03 43.5C234.048 43.5 234.065 43.5 234.083 43.5C234.1 43.5 234.118 43.5 234.135 43.5C234.153 43.5 234.17 43.5 234.188 43.5C234.205 43.5 234.222 43.5 234.24 43.5C234.257 43.5 234.274 43.5 234.292 43.5C234.309 43.5 234.326 43.5 234.344 43.5C234.361 43.5 234.378 43.5 234.395 43.5C234.412 43.5 234.429 43.5 234.447 43.5C234.464 43.5 234.481 43.5 234.498 43.5C234.515 43.5 234.532 43.5 234.549 43.5C234.566 43.5 234.583 43.5 234.6 43.5C234.617 43.5 234.634 43.5 234.65 43.5C234.667 43.5 234.684 43.5 234.701 43.5C234.718 43.5 234.735 43.5 234.751 43.5C234.768 43.5 234.785 43.5 234.802 43.5C234.818 43.5 234.835 43.5 234.852 43.5C234.868 43.5 234.885 43.5 234.901 43.5C234.918 43.5 234.935 43.5 234.951 43.5C234.968 43.5 234.984 43.5 235.001 43.5C235.017 43.5 235.034 43.5 235.05 43.5C235.067 43.5 235.083 43.5 235.099 43.5C235.116 43.5 235.132 43.5 235.148 43.5C235.165 43.5 235.181 43.5 235.197 43.5C235.214 43.5 235.23 43.5 235.246 43.5C235.262 43.5 235.279 43.5 235.295 43.5C235.311 43.5 235.327 43.5 235.343 43.5C235.359 43.5 235.376 43.5 235.392 43.5C235.408 43.5 235.424 43.5 235.44 43.5C235.456 43.5 235.472 43.5 235.488 43.5C235.504 43.5 235.52 43.5 235.536 43.5C235.552 43.5 235.568 43.5 235.584 43.5C235.599 43.5 235.615 43.5 235.631 43.5C235.647 43.5 235.663 43.5 235.679 43.5C235.694 43.5 235.71 43.5 235.726 43.5C235.742 43.5 235.757 43.5 235.773 43.5C235.789 43.5 235.805 43.5 235.82 43.5C235.836 43.5 235.852 43.5 235.867 43.5C235.883 43.5 235.898 43.5 235.914 43.5C235.93 43.5 235.945 43.5 235.961 43.5C235.976 43.5 235.992 43.5 236.007 43.5C236.023 43.5 236.038 43.5 236.054 43.5C236.069 43.5 236.085 43.5 236.1 43.5C236.115 43.5 236.131 43.5 236.146 43.5C236.161 43.5 236.177 43.5 236.192 43.5C236.207 43.5 236.223 43.5 236.238 43.5C236.253 43.5 236.269 43.5 236.284 43.5C236.299 43.5 236.314 43.5 236.33 43.5C236.345 43.5 236.36 43.5 236.375 43.5C236.39 43.5 236.405 43.5 236.421 43.5C236.436 43.5 236.451 43.5 236.466 43.5C236.481 43.5 236.496 43.5 236.511 43.5C236.526 43.5 236.541 43.5 236.556 43.5C236.571 43.5 236.586 43.5 236.601 43.5C236.616 43.5 236.631 43.5 236.646 43.5C236.661 43.5 236.676 43.5 236.691 43.5C236.706 43.5 236.721 43.5 236.736 43.5C236.75 43.5 236.765 43.5 236.78 43.5C236.795 43.5 236.81 43.5 236.825 43.5C236.839 43.5 236.854 43.5 236.869 43.5C236.884 43.5 236.899 43.5 236.913 43.5C236.928 43.5 236.943 43.5 236.957 43.5C236.972 43.5 236.987 43.5 237.002 43.5C237.016 43.5 237.031 43.5 237.046 43.5C237.06 43.5 237.075 43.5 237.089 43.5C237.104 43.5 237.119 43.5 237.133 43.5C237.148 43.5 237.162 43.5 237.177 43.5C237.191 43.5 237.206 43.5 237.221 43.5C237.235 43.5 237.25 43.5 237.264 43.5C237.279 43.5 237.293 43.5 237.308 43.5C237.322 43.5 237.336 43.5 237.351 43.5C237.365 43.5 237.38 43.5 237.394 43.5C237.409 43.5 237.423 43.5 237.437 43.5C237.452 43.5 237.466 43.5 237.48 43.5C237.495 43.5 237.509 43.5 237.524 43.5C237.538 43.5 237.552 43.5 237.566 43.5C237.581 43.5 237.595 43.5 237.609 43.5C237.624 43.5 237.638 43.5 237.652 43.5C237.666 43.5 237.681 43.5 237.695 43.5C237.709 43.5 237.723 43.5 237.738 43.5C237.752 43.5 237.766 43.5 237.78 43.5C237.794 43.5 237.809 43.5 237.823 43.5C237.837 43.5 237.851 43.5 237.865 43.5C237.879 43.5 237.893 43.5 237.908 43.5C237.922 43.5 237.936 43.5 237.95 43.5C237.964 43.5 237.978 43.5 237.992 43.5C238.006 43.5 238.02 43.5 238.034 43.5C238.048 43.5 238.062 43.5 238.077 43.5C238.091 43.5 238.105 43.5 238.119 43.5C238.133 43.5 238.147 43.5 238.161 43.5C238.175 43.5 238.189 43.5 238.203 43.5C238.217 43.5 238.231 43.5 238.245 43.5C238.259 43.5 238.272 43.5 238.286 43.5C238.3 43.5 238.314 43.5 238.328 43.5C238.342 43.5 238.356 43.5 238.37 43.5C238.384 43.5 238.398 43.5 238.412 43.5C238.426 43.5 238.44 43.5 238.453 43.5C238.467 43.5 238.481 43.5 238.495 43.5C238.509 43.5 238.523 43.5 238.537 43.5C238.55 43.5 238.564 43.5 238.578 43.5C238.592 43.5 238.606 43.5 238.62 43.5C238.633 43.5 238.647 43.5 238.661 43.5C238.675 43.5 238.689 43.5 238.703 43.5C238.716 43.5 238.73 43.5 238.744 43.5C238.758 43.5 238.772 43.5 238.785 43.5C238.799 43.5 238.813 43.5 238.827 43.5C238.84 43.5 238.854 43.5 238.868 43.5C238.882 43.5 238.895 43.5 238.909 43.5C238.923 43.5 238.937 43.5 238.95 43.5C238.964 43.5 238.978 43.5 238.992 43.5C239.005 43.5 239.019 43.5 239.033 43.5C239.047 43.5 239.06 43.5 239.074 43.5C239.088 43.5 239.101 43.5 239.115 43.5C239.129 43.5 239.143 43.5 239.156 43.5C239.17 43.5 239.184 43.5 239.197 43.5C239.211 43.5 239.225 43.5 239.238 43.5C239.252 43.5 239.266 43.5 239.279 43.5C239.293 43.5 239.307 43.5 239.321 43.5C239.334 43.5 239.348 43.5 239.362 43.5C239.375 43.5 239.389 43.5 239.403 43.5C239.416 43.5 239.43 43.5 239.444 43.5C239.457 43.5 239.471 43.5 239.485 43.5C239.498 43.5 239.512 43.5 239.526 43.5C239.539 43.5 239.553 43.5 239.567 43.5C239.58 43.5 239.594 43.5 239.608 43.5C239.621 43.5 239.635 43.5 239.648 43.5C239.662 43.5 239.676 43.5 239.689 43.5C239.703 43.5 239.717 43.5 239.73 43.5C239.744 43.5 239.758 43.5 239.771 43.5C239.785 43.5 239.799 43.5 239.812 43.5C239.826 43.5 239.84 43.5 239.853 43.5C239.867 43.5 239.881 43.5 239.894 43.5C239.908 43.5 239.922 43.5 239.935 43.5C239.949 43.5 239.963 43.5 239.976 43.5C239.99 43.5 240.004 43.5 240.017 43.5C240.031 43.5 240.045 43.5 240.058 43.5C240.072 43.5 240.086 43.5 240.099 43.5C240.113 43.5 240.127 43.5 240.14 43.5C240.154 43.5 240.168 43.5 240.181 43.5C240.195 43.5 240.209 43.5 240.223 43.5C240.236 43.5 240.25 43.5 240.264 43.5C240.277 43.5 240.291 43.5 240.305 43.5C240.318 43.5 240.332 43.5 240.346 43.5C240.36 43.5 240.373 43.5 240.387 43.5C240.401 43.5 240.415 43.5 240.428 43.5C240.442 43.5 240.456 43.5 240.469 43.5C240.483 43.5 240.497 43.5 240.511 43.5C240.524 43.5 240.538 43.5 240.552 43.5C240.566 43.5 240.58 43.5 240.593 43.5C240.607 43.5 240.621 43.5 240.635 43.5C240.648 43.5 240.662 43.5 240.676 43.5C240.69 43.5 240.704 43.5 240.717 43.5C240.731 43.5 240.745 43.5 240.759 43.5C240.773 43.5 240.786 43.5 240.8 43.5C240.814 43.5 240.828 43.5 240.842 43.5C240.856 43.5 240.87 43.5 240.883 43.5C240.897 43.5 240.911 43.5 240.925 43.5C240.939 43.5 240.953 43.5 240.967 43.5C240.98 43.5 240.994 43.5 241.008 43.5C241.022 43.5 241.036 43.5 241.05 43.5C241.064 43.5 241.078 43.5 241.092 43.5C241.106 43.5 241.12 43.5 241.134 43.5C241.148 43.5 241.162 43.5 241.175 43.5C241.189 43.5 241.203 43.5 241.217 43.5C241.231 43.5 241.245 43.5 241.259 43.5C241.273 43.5 241.287 43.5 241.301 43.5C241.315 43.5 241.33 43.5 241.344 43.5C241.358 43.5 241.372 43.5 241.386 43.5C241.4 43.5 241.414 43.5 241.428 43.5C241.442 43.5 241.456 43.5 241.47 43.5C241.484 43.5 241.498 43.5 241.513 43.5C241.527 43.5 241.541 43.5 241.555 43.5C241.569 43.5 241.583 43.5 241.597 43.5C241.612 43.5 241.626 43.5 241.64 43.5C241.654 43.5 241.668 43.5 241.683 43.5C241.697 43.5 241.711 43.5 241.725 43.5C241.739 43.5 241.754 43.5 241.768 43.5C241.782 43.5 241.797 43.5 241.811 43.5C241.825 43.5 241.839 43.5 241.854 43.5C241.868 43.5 241.882 43.5 241.897 43.5C241.911 43.5 241.925 43.5 241.94 43.5C241.954 43.5 241.968 43.5 241.983 43.5C241.997 43.5 242.012 43.5 242.026 43.5C242.04 43.5 242.055 43.5 242.069 43.5C242.084 43.5 242.098 43.5 242.113 43.5C242.127 43.5 242.142 43.5 242.156 43.5C242.171 43.5 242.185 43.5 242.2 43.5C242.214 43.5 242.229 43.5 242.243 43.5C242.258 43.5 242.272 43.5 242.287 43.5C242.302 43.5 242.316 43.5 242.331 43.5C242.346 43.5 242.36 43.5 242.375 43.5C242.389 43.5 242.404 43.5 242.419 43.5C242.433 43.5 242.448 43.5 242.463 43.5C242.478 43.5 242.492 43.5 242.507 43.5C242.522 43.5 242.537 43.5 242.551 43.5C242.566 43.5 242.581 43.5 242.596 43.5C242.611 43.5 242.625 43.5 242.64 43.5C242.655 43.5 242.67 43.5 242.685 43.5C242.7 43.5 242.715 43.5 242.73 43.5C242.744 43.5 242.759 43.5 242.774 43.5C242.789 43.5 242.804 43.5 242.819 43.5C242.834 43.5 242.849 43.5 242.864 43.5C242.879 43.5 242.894 43.5 242.909 43.5C242.924 43.5 242.94 43.5 242.955 43.5C242.97 43.5 242.985 43.5 243 43.5C243.015 43.5 243.03 43.5 243.045 43.5C243.061 43.5 243.076 43.5 243.091 43.5C243.106 43.5 243.121 43.5 243.137 43.5C243.152 43.5 243.167 43.5 243.183 43.5C243.198 43.5 243.213 43.5 243.229 43.5C243.244 43.5 243.259 43.5 243.275 43.5C243.29 43.5 243.305 43.5 243.321 43.5C243.336 43.5 243.352 43.5 243.367 43.5C243.383 43.5 243.398 43.5 243.414 43.5C243.429 43.5 243.445 43.5 243.46 43.5C243.476 43.5 243.491 43.5 243.507 43.5C243.522 43.5 243.538 43.5 243.554 43.5C243.569 43.5 243.585 43.5 243.601 43.5C243.616 43.5 243.632 43.5 243.648 43.5C243.663 43.5 243.679 43.5 243.695 43.5C243.711 43.5 243.726 43.5 243.742 43.5C243.758 43.5 243.774 43.5 243.79 43.5C243.806 43.5 243.821 43.5 243.837 43.5C243.853 43.5 243.869 43.5 243.885 43.5C243.901 43.5 243.917 43.5 243.933 43.5C243.949 43.5 243.965 43.5 243.981 43.5C243.997 43.5 244.013 43.5 244.029 43.5C244.045 43.5 244.062 43.5 244.078 43.5C244.094 43.5 244.11 43.5 244.126 43.5C244.142 43.5 244.159 43.5 244.175 43.5C244.191 43.5 244.207 43.5 244.224 43.5C244.24 43.5 244.256 43.5 244.273 43.5C244.289 43.5 244.305 43.5 244.322 43.5C244.338 43.5 244.355 43.5 244.371 43.5C244.387 43.5 244.404 43.5 244.42 43.5C244.437 43.5 244.453 43.5 244.47 43.5C244.487 43.5 244.503 43.5 244.52 43.5C244.536 43.5 244.553 43.5 244.57 43.5C244.586 43.5 244.603 43.5 244.62 43.5C244.636 43.5 244.653 43.5 244.67 43.5C244.687 43.5 244.704 43.5 244.72 43.5C244.737 43.5 244.754 43.5 244.771 43.5C244.788 43.5 244.805 43.5 244.822 43.5C244.839 43.5 244.856 43.5 244.873 43.5C244.89 43.5 244.907 43.5 244.924 43.5C244.941 43.5 244.958 43.5 244.975 43.5C244.992 43.5 245.009 43.5 245.026 43.5C245.044 43.5 245.061 43.5 245.078 43.5C245.095 43.5 245.112 43.5 245.13 43.5C245.147 43.5 245.164 43.5 245.182 43.5C245.199 43.5 245.216 43.5 245.234 43.5C245.251 43.5 245.269 43.5 245.286 43.5C245.304 43.5 245.321 43.5 245.339 43.5C245.356 43.5 245.374 43.5 245.391 43.5C245.409 43.5 245.427 43.5 245.444 43.5C245.462 43.5 245.48 43.5 245.497 43.5C245.515 43.5 245.533 43.5 245.551 43.5C245.568 43.5 245.586 43.5 245.604 43.5C245.622 43.5 245.64 43.5 245.658 43.5C245.676 43.5 245.694 43.5 245.712 43.5C245.73 43.5 245.748 43.5 245.766 43.5C245.784 43.5 245.802 43.5 245.82 43.5C245.838 43.5 245.856 43.5 245.874 43.5C245.892 43.5 245.911 43.5 245.929 43.5C245.947 43.5 245.965 43.5 245.984 43.5C246.002 43.5 246.02 43.5 246.039 43.5C246.057 43.5 246.076 43.5 246.094 43.5C246.112 43.5 246.131 43.5 246.149 43.5C246.168 43.5 246.186 43.5 246.205 43.5C246.224 43.5 246.242 43.5 246.261 43.5C246.28 43.5 246.298 43.5 246.317 43.5C246.336 43.5 246.354 43.5 246.373 43.5C246.392 43.5 246.411 43.5 246.43 43.5C246.449 43.5 246.468 43.5 246.486 43.5C246.505 43.5 246.524 43.5 246.543 43.5C246.562 43.5 246.581 43.5 246.601 43.5C246.62 43.5 246.639 43.5 246.658 43.5C246.677 43.5 246.696 43.5 246.716 43.5C246.735 43.5 246.754 43.5 246.773 43.5C246.793 43.5 246.812 43.5 246.831 43.5C246.851 43.5 246.87 43.5 246.89 43.5C246.909 43.5 246.929 43.5 246.948 43.5C246.968 43.5 246.987 43.5 247.007 43.5C247.026 43.5 247.046 43.5 247.066 43.5C247.085 43.5 247.105 43.5 247.125 43.5C247.145 43.5 247.164 43.5 247.184 43.5C247.204 43.5 247.224 43.5 247.244 43.5C247.264 43.5 247.284 43.5 247.304 43.5C247.324 43.5 247.344 43.5 247.364 43.5C247.384 43.5 247.404 43.5 247.424 43.5C247.444 43.5 247.465 43.5 247.485 43.5C247.505 43.5 247.525 43.5 247.546 43.5C247.566 43.5 247.586 43.5 247.607 43.5C247.627 43.5 247.648 43.5 247.668 43.5C247.689 43.5 247.709 43.5 247.73 43.5C247.75 43.5 247.771 43.5 247.791 43.5C247.812 43.5 247.833 43.5 247.854 43.5C247.874 43.5 247.895 43.5 247.916 43.5C247.937 43.5 247.957 43.5 247.978 43.5C247.999 43.5 248.02 43.5 248.041 43.5C248.062 43.5 248.083 43.5 248.104 43.5C248.125 43.5 248.146 43.5 248.168 43.5C248.189 43.5 248.21 43.5 248.231 43.5C248.252 43.5 248.274 43.5 248.295 43.5C248.316 43.5 248.338 43.5 248.359 43.5C248.38 43.5 248.402 43.5 248.423 43.5C248.445 43.5 248.466 43.5 248.488 43.5C248.51 43.5 248.531 43.5 248.553 43.5C248.575 43.5 248.596 43.5 248.618 43.5C248.64 43.5 248.662 43.5 248.684 43.5C248.705 43.5 248.727 43.5 248.749 43.5C248.771 43.5 248.793 43.5 248.815 43.5C248.837 43.5 248.859 43.5 248.881 43.5C248.904 43.5 248.926 43.5 248.948 43.5C248.97 43.5 248.992 43.5 249.015 43.5C249.037 43.5 249.059 43.5 249.082 43.5C249.104 43.5 249.127 43.5 249.149 43.5C249.172 43.5 249.194 43.5 249.217 43.5C249.239 43.5 249.262 43.5 249.285 43.5C249.307 43.5 249.33 43.5 249.353 43.5C249.376 43.5 249.398 43.5 249.421 43.5C249.444 43.5 249.467 43.5 249.49 43.5C249.513 43.5 249.536 43.5 249.559 43.5C249.582 43.5 249.605 43.5 249.628 43.5C249.652 43.5 249.675 43.5 249.698 43.5C249.721 43.5 249.745 43.5 249.768 43.5C249.791 43.5 249.815 43.5 249.838 43.5C249.862 43.5 249.885 43.5 249.909 43.5C249.932 43.5 249.956 43.5 249.979 43.5C250.003 43.5 250.027 43.5 250.051 43.5C250.074 43.5 250.098 43.5 250.122 43.5C250.146 43.5 250.17 43.5 250.194 43.5C250.218 43.5 250.242 43.5 250.266 43.5C250.29 43.5 250.314 43.5 250.338 43.5C250.362 43.5 250.386 43.5 250.411 43.5C250.435 43.5 250.459 43.5 250.483 43.5C250.508 43.5 250.532 43.5 250.557 43.5C250.581 43.5 250.606 43.5 250.63 43.5C250.655 43.5 250.679 43.5 250.704 43.5C250.729 43.5 250.753 43.5 250.778 43.5C250.803 43.5 250.828 43.5 250.853 43.5C250.877 43.5 250.902 43.5 250.927 43.5C250.952 43.5 250.977 43.5 251.002 43.5C251.028 43.5 251.053 43.5 251.078 43.5C251.103 43.5 251.128 43.5 251.154 43.5C251.179 43.5 251.204 43.5 251.23 43.5C251.255 43.5 251.281 43.5 251.306 43.5C251.332 43.5 251.357 43.5 251.383 43.5C251.408 43.5 251.434 43.5 251.46 43.5C251.485 43.5 251.511 43.5 251.537 43.5C251.563 43.5 251.589 43.5 251.615 43.5C251.641 43.5 251.667 43.5 251.693 43.5C251.719 43.5 251.745 43.5 251.771 43.5C251.797 43.5 251.824 43.5 251.85 43.5C251.876 43.5 251.902 43.5 251.929 43.5C251.955 43.5 251.982 43.5 252.008 43.5C252.035 43.5 252.061 43.5 252.088 43.5C252.114 43.5 252.141 43.5 252.168 43.5C252.195 43.5 252.221 43.5 252.248 43.5C252.275 43.5 252.302 43.5 252.329 43.5C252.356 43.5 252.383 43.5 252.41 43.5C252.437 43.5 252.464 43.5 252.491 43.5C252.518 43.5 252.546 43.5 252.573 43.5C252.6 43.5 252.628 43.5 252.655 43.5C252.683 43.5 252.71 43.5 252.738 43.5C252.765 43.5 252.793 43.5 252.82 43.5C252.848 43.5 252.876 43.5 252.903 43.5C252.931 43.5 252.959 43.5 252.987 43.5C253.015 43.5 253.043 43.5 253.071 43.5C253.099 43.5 253.127 43.5 253.155 43.5C253.183 43.5 253.211 43.5 253.24 43.5C253.268 43.5 253.296 43.5 253.324 43.5C253.353 43.5 253.381 43.5 253.41 43.5C253.438 43.5 253.467 43.5 253.495 43.5C253.524 43.5 253.553 43.5 253.581 43.5C253.61 43.5 253.639 43.5 253.668 43.5C253.697 43.5 253.725 43.5 253.754 43.5C253.783 43.5 253.812 43.5 253.842 43.5C253.871 43.5 253.9 43.5 253.929 43.5C253.958 43.5 253.988 43.5 254.017 43.5C254.046 43.5 254.076 43.5 254.105 43.5C254.135 43.5 254.164 43.5 254.194 43.5C254.223 43.5 254.253 43.5 254.283 43.5C254.312 43.5 254.342 43.5 254.372 43.5C254.402 43.5 254.432 43.5 254.462 43.5C254.492 43.5 254.522 43.5 254.552 43.5C254.582 43.5 254.612 43.5 254.642 43.5C254.672 43.5 254.703 43.5 254.733 43.5C254.763 43.5 254.794 43.5 254.824 43.5C254.855 43.5 254.885 43.5 254.916 43.5C254.947 43.5 254.977 43.5 255.008 43.5C255.039 43.5 255.07 43.5 255.1 43.5C255.131 43.5 255.162 43.5 255.193 43.5C255.224 43.5 255.255 43.5 255.286 43.5C255.318 43.5 255.349 43.5 255.38 43.5C255.411 43.5 255.443 43.5 255.474 43.5C255.505 43.5 255.537 43.5 255.568 43.5C255.6 43.5 255.631 43.5 255.663 43.5C255.695 43.5 255.727 43.5 255.758 43.5C255.79 43.5 255.822 43.5 255.854 43.5C255.886 43.5 255.918 43.5 255.95 43.5C255.982 43.5 256.014 43.5 256.046 43.5C256.078 43.5 256.111 43.5 256.143 43.5C256.175 43.5 256.208 43.5 256.24 43.5C256.273 43.5 256.305 43.5 256.338 43.5C256.37 43.5 256.403 43.5 256.436 43.5C256.469 43.5 256.501 43.5 256.534 43.5C256.567 43.5 256.6 43.5 256.633 43.5C256.666 43.5 256.699 43.5 256.732 43.5C256.765 43.5 256.799 43.5 256.832 43.5C256.865 43.5 256.899 43.5 256.932 43.5C256.965 43.5 256.999 43.5 257.033 43.5C257.066 43.5 257.1 43.5 257.133 43.5C257.167 43.5 257.201 43.5 257.235 43.5C257.269 43.5 257.303 43.5 257.337 43.5C257.371 43.5 257.405 43.5 257.439 43.5C257.473 43.5 257.507 43.5 257.541 43.5C257.576 43.5 257.61 43.5 257.644 43.5C257.679 43.5 257.713 43.5 257.748 43.5C257.782 43.5 257.817 43.5 257.852 43.5C257.886 43.5 257.921 43.5 257.956 43.5C257.991 43.5 258.026 43.5 258.061 43.5C258.096 43.5 258.131 43.5 258.166 43.5C258.201 43.5 258.236 43.5 258.272 43.5C258.307 43.5 258.342 43.5 258.378 43.5C258.413 43.5 258.449 43.5 258.484 43.5C258.52 43.5 258.555 43.5 258.591 43.5C258.627 43.5 258.663 43.5 258.699 43.5C258.734 43.5 258.77 43.5 258.806 43.5C258.842 43.5 258.879 43.5 258.915 43.5C258.951 43.5 258.987 43.5 259.023 43.5C259.06 43.5 259.096 43.5 259.133 43.5C259.169 43.5 259.206 43.5 259.242 43.5C259.279 43.5 259.315 43.5 259.352 43.5C259.389 43.5 259.426 43.5 259.463 43.5C259.5 43.5 259.537 43.5 259.574 43.5C259.611 43.5 259.648 43.5 259.685 43.5C259.722 43.5 259.76 43.5 259.797 43.5C259.834 43.5 259.872 43.5 259.909 43.5C259.947 43.5 259.985 43.5 260.022 43.5C260.06 43.5 260.098 43.5 260.136 43.5C260.173 43.5 260.211 43.5 260.249 43.5C260.287 43.5 260.325 43.5 260.363 43.5C260.402 43.5 260.44 43.5 260.478 43.5C260.516 43.5 260.555 43.5 260.593 43.5C260.632 43.5 260.67 43.5 260.709 43.5C260.747 43.5 260.786 43.5 260.825 43.5C260.864 43.5 260.903 43.5 260.941 43.5C260.98 43.5 261.019 43.5 261.058 43.5C261.098 43.5 261.137 43.5 261.176 43.5C261.215 43.5 261.254 43.5 261.294 43.5C261.333 43.5 261.373 43.5 261.412 43.5C261.452 43.5 261.492 43.5 261.531 43.5C261.571 43.5 261.611 43.5 261.651 43.5C261.691 43.5 261.73 43.5 261.771 43.5C261.811 43.5 261.851 43.5 261.891 43.5C261.931 43.5 261.971 43.5 262.012 43.5C262.052 43.5 262.093 43.5 262.133 43.5C262.174 43.5 262.214 43.5 262.255 43.5C262.296 43.5 262.336 43.5 262.377 43.5C262.418 43.5 262.459 43.5 262.5 43.5V44.5C262.459 44.5 262.418 44.5 262.377 44.5C262.336 44.5 262.296 44.5 262.255 44.5C262.214 44.5 262.174 44.5 262.133 44.5C262.093 44.5 262.052 44.5 262.012 44.5C261.971 44.5 261.931 44.5 261.891 44.5C261.851 44.5 261.811 44.5 261.771 44.5C261.73 44.5 261.691 44.5 261.651 44.5C261.611 44.5 261.571 44.5 261.531 44.5C261.492 44.5 261.452 44.5 261.412 44.5C261.373 44.5 261.333 44.5 261.294 44.5C261.254 44.5 261.215 44.5 261.176 44.5C261.137 44.5 261.098 44.5 261.058 44.5C261.019 44.5 260.98 44.5 260.941 44.5C260.903 44.5 260.864 44.5 260.825 44.5C260.786 44.5 260.747 44.5 260.709 44.5C260.67 44.5 260.632 44.5 260.593 44.5C260.555 44.5 260.516 44.5 260.478 44.5C260.44 44.5 260.402 44.5 260.363 44.5C260.325 44.5 260.287 44.5 260.249 44.5C260.211 44.5 260.173 44.5 260.136 44.5C260.098 44.5 260.06 44.5 260.022 44.5C259.985 44.5 259.947 44.5 259.909 44.5C259.872 44.5 259.834 44.5 259.797 44.5C259.76 44.5 259.722 44.5 259.685 44.5C259.648 44.5 259.611 44.5 259.574 44.5C259.537 44.5 259.5 44.5 259.463 44.5C259.426 44.5 259.389 44.5 259.352 44.5C259.315 44.5 259.279 44.5 259.242 44.5C259.206 44.5 259.169 44.5 259.133 44.5C259.096 44.5 259.06 44.5 259.023 44.5C258.987 44.5 258.951 44.5 258.915 44.5C258.879 44.5 258.842 44.5 258.806 44.5C258.77 44.5 258.734 44.5 258.699 44.5C258.663 44.5 258.627 44.5 258.591 44.5C258.555 44.5 258.52 44.5 258.484 44.5C258.449 44.5 258.413 44.5 258.378 44.5C258.342 44.5 258.307 44.5 258.272 44.5C258.236 44.5 258.201 44.5 258.166 44.5C258.131 44.5 258.096 44.5 258.061 44.5C258.026 44.5 257.991 44.5 257.956 44.5C257.921 44.5 257.886 44.5 257.852 44.5C257.817 44.5 257.782 44.5 257.748 44.5C257.713 44.5 257.679 44.5 257.644 44.5C257.61 44.5 257.576 44.5 257.541 44.5C257.507 44.5 257.473 44.5 257.439 44.5C257.405 44.5 257.371 44.5 257.337 44.5C257.303 44.5 257.269 44.5 257.235 44.5C257.201 44.5 257.167 44.5 257.133 44.5C257.1 44.5 257.066 44.5 257.033 44.5C256.999 44.5 256.965 44.5 256.932 44.5C256.899 44.5 256.865 44.5 256.832 44.5C256.799 44.5 256.765 44.5 256.732 44.5C256.699 44.5 256.666 44.5 256.633 44.5C256.6 44.5 256.567 44.5 256.534 44.5C256.501 44.5 256.469 44.5 256.436 44.5C256.403 44.5 256.37 44.5 256.338 44.5C256.305 44.5 256.273 44.5 256.24 44.5C256.208 44.5 256.175 44.5 256.143 44.5C256.111 44.5 256.078 44.5 256.046 44.5C256.014 44.5 255.982 44.5 255.95 44.5C255.918 44.5 255.886 44.5 255.854 44.5C255.822 44.5 255.79 44.5 255.758 44.5C255.727 44.5 255.695 44.5 255.663 44.5C255.631 44.5 255.6 44.5 255.568 44.5C255.537 44.5 255.505 44.5 255.474 44.5C255.443 44.5 255.411 44.5 255.38 44.5C255.349 44.5 255.318 44.5 255.286 44.5C255.255 44.5 255.224 44.5 255.193 44.5C255.162 44.5 255.131 44.5 255.1 44.5C255.07 44.5 255.039 44.5 255.008 44.5C254.977 44.5 254.947 44.5 254.916 44.5C254.885 44.5 254.855 44.5 254.824 44.5C254.794 44.5 254.763 44.5 254.733 44.5C254.703 44.5 254.672 44.5 254.642 44.5C254.612 44.5 254.582 44.5 254.552 44.5C254.522 44.5 254.492 44.5 254.462 44.5C254.432 44.5 254.402 44.5 254.372 44.5C254.342 44.5 254.312 44.5 254.283 44.5C254.253 44.5 254.223 44.5 254.194 44.5C254.164 44.5 254.135 44.5 254.105 44.5C254.076 44.5 254.046 44.5 254.017 44.5C253.988 44.5 253.958 44.5 253.929 44.5C253.9 44.5 253.871 44.5 253.842 44.5C253.812 44.5 253.783 44.5 253.754 44.5C253.725 44.5 253.697 44.5 253.668 44.5C253.639 44.5 253.61 44.5 253.581 44.5C253.553 44.5 253.524 44.5 253.495 44.5C253.467 44.5 253.438 44.5 253.41 44.5C253.381 44.5 253.353 44.5 253.324 44.5C253.296 44.5 253.268 44.5 253.24 44.5C253.211 44.5 253.183 44.5 253.155 44.5C253.127 44.5 253.099 44.5 253.071 44.5C253.043 44.5 253.015 44.5 252.987 44.5C252.959 44.5 252.931 44.5 252.903 44.5C252.876 44.5 252.848 44.5 252.82 44.5C252.793 44.5 252.765 44.5 252.738 44.5C252.71 44.5 252.683 44.5 252.655 44.5C252.628 44.5 252.6 44.5 252.573 44.5C252.546 44.5 252.518 44.5 252.491 44.5C252.464 44.5 252.437 44.5 252.41 44.5C252.383 44.5 252.356 44.5 252.329 44.5C252.302 44.5 252.275 44.5 252.248 44.5C252.221 44.5 252.195 44.5 252.168 44.5C252.141 44.5 252.114 44.5 252.088 44.5C252.061 44.5 252.035 44.5 252.008 44.5C251.982 44.5 251.955 44.5 251.929 44.5C251.902 44.5 251.876 44.5 251.85 44.5C251.824 44.5 251.797 44.5 251.771 44.5C251.745 44.5 251.719 44.5 251.693 44.5C251.667 44.5 251.641 44.5 251.615 44.5C251.589 44.5 251.563 44.5 251.537 44.5C251.511 44.5 251.485 44.5 251.46 44.5C251.434 44.5 251.408 44.5 251.383 44.5C251.357 44.5 251.332 44.5 251.306 44.5C251.281 44.5 251.255 44.5 251.23 44.5C251.204 44.5 251.179 44.5 251.154 44.5C251.128 44.5 251.103 44.5 251.078 44.5C251.053 44.5 251.028 44.5 251.002 44.5C250.977 44.5 250.952 44.5 250.927 44.5C250.902 44.5 250.877 44.5 250.853 44.5C250.828 44.5 250.803 44.5 250.778 44.5C250.753 44.5 250.729 44.5 250.704 44.5C250.679 44.5 250.655 44.5 250.63 44.5C250.606 44.5 250.581 44.5 250.557 44.5C250.532 44.5 250.508 44.5 250.483 44.5C250.459 44.5 250.435 44.5 250.411 44.5C250.386 44.5 250.362 44.5 250.338 44.5C250.314 44.5 250.29 44.5 250.266 44.5C250.242 44.5 250.218 44.5 250.194 44.5C250.17 44.5 250.146 44.5 250.122 44.5C250.098 44.5 250.074 44.5 250.051 44.5C250.027 44.5 250.003 44.5 249.979 44.5C249.956 44.5 249.932 44.5 249.909 44.5C249.885 44.5 249.862 44.5 249.838 44.5C249.815 44.5 249.791 44.5 249.768 44.5C249.745 44.5 249.721 44.5 249.698 44.5C249.675 44.5 249.652 44.5 249.628 44.5C249.605 44.5 249.582 44.5 249.559 44.5C249.536 44.5 249.513 44.5 249.49 44.5C249.467 44.5 249.444 44.5 249.421 44.5C249.398 44.5 249.376 44.5 249.353 44.5C249.33 44.5 249.307 44.5 249.285 44.5C249.262 44.5 249.239 44.5 249.217 44.5C249.194 44.5 249.172 44.5 249.149 44.5C249.127 44.5 249.104 44.5 249.082 44.5C249.059 44.5 249.037 44.5 249.015 44.5C248.992 44.5 248.97 44.5 248.948 44.5C248.926 44.5 248.904 44.5 248.881 44.5C248.859 44.5 248.837 44.5 248.815 44.5C248.793 44.5 248.771 44.5 248.749 44.5C248.727 44.5 248.705 44.5 248.684 44.5C248.662 44.5 248.64 44.5 248.618 44.5C248.596 44.5 248.575 44.5 248.553 44.5C248.531 44.5 248.51 44.5 248.488 44.5C248.466 44.5 248.445 44.5 248.423 44.5C248.402 44.5 248.38 44.5 248.359 44.5C248.338 44.5 248.316 44.5 248.295 44.5C248.274 44.5 248.252 44.5 248.231 44.5C248.21 44.5 248.189 44.5 248.168 44.5C248.146 44.5 248.125 44.5 248.104 44.5C248.083 44.5 248.062 44.5 248.041 44.5C248.02 44.5 247.999 44.5 247.978 44.5C247.957 44.5 247.937 44.5 247.916 44.5C247.895 44.5 247.874 44.5 247.854 44.5C247.833 44.5 247.812 44.5 247.791 44.5C247.771 44.5 247.75 44.5 247.73 44.5C247.709 44.5 247.689 44.5 247.668 44.5C247.648 44.5 247.627 44.5 247.607 44.5C247.586 44.5 247.566 44.5 247.546 44.5C247.525 44.5 247.505 44.5 247.485 44.5C247.465 44.5 247.444 44.5 247.424 44.5C247.404 44.5 247.384 44.5 247.364 44.5C247.344 44.5 247.324 44.5 247.304 44.5C247.284 44.5 247.264 44.5 247.244 44.5C247.224 44.5 247.204 44.5 247.184 44.5C247.164 44.5 247.145 44.5 247.125 44.5C247.105 44.5 247.085 44.5 247.066 44.5C247.046 44.5 247.026 44.5 247.007 44.5C246.987 44.5 246.968 44.5 246.948 44.5C246.929 44.5 246.909 44.5 246.89 44.5C246.87 44.5 246.851 44.5 246.831 44.5C246.812 44.5 246.793 44.5 246.773 44.5C246.754 44.5 246.735 44.5 246.716 44.5C246.696 44.5 246.677 44.5 246.658 44.5C246.639 44.5 246.62 44.5 246.601 44.5C246.581 44.5 246.562 44.5 246.543 44.5C246.524 44.5 246.505 44.5 246.486 44.5C246.468 44.5 246.449 44.5 246.43 44.5C246.411 44.5 246.392 44.5 246.373 44.5C246.354 44.5 246.336 44.5 246.317 44.5C246.298 44.5 246.28 44.5 246.261 44.5C246.242 44.5 246.224 44.5 246.205 44.5C246.186 44.5 246.168 44.5 246.149 44.5C246.131 44.5 246.112 44.5 246.094 44.5C246.076 44.5 246.057 44.5 246.039 44.5C246.02 44.5 246.002 44.5 245.984 44.5C245.965 44.5 245.947 44.5 245.929 44.5C245.911 44.5 245.892 44.5 245.874 44.5C245.856 44.5 245.838 44.5 245.82 44.5C245.802 44.5 245.784 44.5 245.766 44.5C245.748 44.5 245.73 44.5 245.712 44.5C245.694 44.5 245.676 44.5 245.658 44.5C245.64 44.5 245.622 44.5 245.604 44.5C245.586 44.5 245.568 44.5 245.551 44.5C245.533 44.5 245.515 44.5 245.497 44.5C245.48 44.5 245.462 44.5 245.444 44.5C245.427 44.5 245.409 44.5 245.391 44.5C245.374 44.5 245.356 44.5 245.339 44.5C245.321 44.5 245.304 44.5 245.286 44.5C245.269 44.5 245.251 44.5 245.234 44.5C245.216 44.5 245.199 44.5 245.182 44.5C245.164 44.5 245.147 44.5 245.13 44.5C245.112 44.5 245.095 44.5 245.078 44.5C245.061 44.5 245.044 44.5 245.026 44.5C245.009 44.5 244.992 44.5 244.975 44.5C244.958 44.5 244.941 44.5 244.924 44.5C244.907 44.5 244.89 44.5 244.873 44.5C244.856 44.5 244.839 44.5 244.822 44.5C244.805 44.5 244.788 44.5 244.771 44.5C244.754 44.5 244.737 44.5 244.72 44.5C244.704 44.5 244.687 44.5 244.67 44.5C244.653 44.5 244.636 44.5 244.62 44.5C244.603 44.5 244.586 44.5 244.57 44.5C244.553 44.5 244.536 44.5 244.52 44.5C244.503 44.5 244.487 44.5 244.47 44.5C244.453 44.5 244.437 44.5 244.42 44.5C244.404 44.5 244.387 44.5 244.371 44.5C244.355 44.5 244.338 44.5 244.322 44.5C244.305 44.5 244.289 44.5 244.273 44.5C244.256 44.5 244.24 44.5 244.224 44.5C244.207 44.5 244.191 44.5 244.175 44.5C244.159 44.5 244.142 44.5 244.126 44.5C244.11 44.5 244.094 44.5 244.078 44.5C244.062 44.5 244.045 44.5 244.029 44.5C244.013 44.5 243.997 44.5 243.981 44.5C243.965 44.5 243.949 44.5 243.933 44.5C243.917 44.5 243.901 44.5 243.885 44.5C243.869 44.5 243.853 44.5 243.837 44.5C243.821 44.5 243.806 44.5 243.79 44.5C243.774 44.5 243.758 44.5 243.742 44.5C243.726 44.5 243.711 44.5 243.695 44.5C243.679 44.5 243.663 44.5 243.648 44.5C243.632 44.5 243.616 44.5 243.601 44.5C243.585 44.5 243.569 44.5 243.554 44.5C243.538 44.5 243.522 44.5 243.507 44.5C243.491 44.5 243.476 44.5 243.46 44.5C243.445 44.5 243.429 44.5 243.414 44.5C243.398 44.5 243.383 44.5 243.367 44.5C243.352 44.5 243.336 44.5 243.321 44.5C243.305 44.5 243.29 44.5 243.275 44.5C243.259 44.5 243.244 44.5 243.229 44.5C243.213 44.5 243.198 44.5 243.183 44.5C243.167 44.5 243.152 44.5 243.137 44.5C243.121 44.5 243.106 44.5 243.091 44.5C243.076 44.5 243.061 44.5 243.045 44.5C243.03 44.5 243.015 44.5 243 44.5C242.985 44.5 242.97 44.5 242.955 44.5C242.94 44.5 242.924 44.5 242.909 44.5C242.894 44.5 242.879 44.5 242.864 44.5C242.849 44.5 242.834 44.5 242.819 44.5C242.804 44.5 242.789 44.5 242.774 44.5C242.759 44.5 242.744 44.5 242.73 44.5C242.715 44.5 242.7 44.5 242.685 44.5C242.67 44.5 242.655 44.5 242.64 44.5C242.625 44.5 242.611 44.5 242.596 44.5C242.581 44.5 242.566 44.5 242.551 44.5C242.537 44.5 242.522 44.5 242.507 44.5C242.492 44.5 242.478 44.5 242.463 44.5C242.448 44.5 242.433 44.5 242.419 44.5C242.404 44.5 242.389 44.5 242.375 44.5C242.36 44.5 242.346 44.5 242.331 44.5C242.316 44.5 242.302 44.5 242.287 44.5C242.272 44.5 242.258 44.5 242.243 44.5C242.229 44.5 242.214 44.5 242.2 44.5C242.185 44.5 242.171 44.5 242.156 44.5C242.142 44.5 242.127 44.5 242.113 44.5C242.098 44.5 242.084 44.5 242.069 44.5C242.055 44.5 242.04 44.5 242.026 44.5C242.012 44.5 241.997 44.5 241.983 44.5C241.968 44.5 241.954 44.5 241.94 44.5C241.925 44.5 241.911 44.5 241.897 44.5C241.882 44.5 241.868 44.5 241.854 44.5C241.839 44.5 241.825 44.5 241.811 44.5C241.797 44.5 241.782 44.5 241.768 44.5C241.754 44.5 241.739 44.5 241.725 44.5C241.711 44.5 241.697 44.5 241.683 44.5C241.668 44.5 241.654 44.5 241.64 44.5C241.626 44.5 241.612 44.5 241.597 44.5C241.583 44.5 241.569 44.5 241.555 44.5C241.541 44.5 241.527 44.5 241.513 44.5C241.498 44.5 241.484 44.5 241.47 44.5C241.456 44.5 241.442 44.5 241.428 44.5C241.414 44.5 241.4 44.5 241.386 44.5C241.372 44.5 241.358 44.5 241.344 44.5C241.33 44.5 241.315 44.5 241.301 44.5C241.287 44.5 241.273 44.5 241.259 44.5C241.245 44.5 241.231 44.5 241.217 44.5C241.203 44.5 241.189 44.5 241.175 44.5C241.162 44.5 241.148 44.5 241.134 44.5C241.12 44.5 241.106 44.5 241.092 44.5C241.078 44.5 241.064 44.5 241.05 44.5C241.036 44.5 241.022 44.5 241.008 44.5C240.994 44.5 240.98 44.5 240.967 44.5C240.953 44.5 240.939 44.5 240.925 44.5C240.911 44.5 240.897 44.5 240.883 44.5C240.87 44.5 240.856 44.5 240.842 44.5C240.828 44.5 240.814 44.5 240.8 44.5C240.786 44.5 240.773 44.5 240.759 44.5C240.745 44.5 240.731 44.5 240.717 44.5C240.704 44.5 240.69 44.5 240.676 44.5C240.662 44.5 240.648 44.5 240.635 44.5C240.621 44.5 240.607 44.5 240.593 44.5C240.58 44.5 240.566 44.5 240.552 44.5C240.538 44.5 240.524 44.5 240.511 44.5C240.497 44.5 240.483 44.5 240.469 44.5C240.456 44.5 240.442 44.5 240.428 44.5C240.415 44.5 240.401 44.5 240.387 44.5C240.373 44.5 240.36 44.5 240.346 44.5C240.332 44.5 240.318 44.5 240.305 44.5C240.291 44.5 240.277 44.5 240.264 44.5C240.25 44.5 240.236 44.5 240.223 44.5C240.209 44.5 240.195 44.5 240.181 44.5C240.168 44.5 240.154 44.5 240.14 44.5C240.127 44.5 240.113 44.5 240.099 44.5C240.086 44.5 240.072 44.5 240.058 44.5C240.045 44.5 240.031 44.5 240.017 44.5C240.004 44.5 239.99 44.5 239.976 44.5C239.963 44.5 239.949 44.5 239.935 44.5C239.922 44.5 239.908 44.5 239.894 44.5C239.881 44.5 239.867 44.5 239.853 44.5C239.84 44.5 239.826 44.5 239.812 44.5C239.799 44.5 239.785 44.5 239.771 44.5C239.758 44.5 239.744 44.5 239.73 44.5C239.717 44.5 239.703 44.5 239.689 44.5C239.676 44.5 239.662 44.5 239.648 44.5C239.635 44.5 239.621 44.5 239.608 44.5C239.594 44.5 239.58 44.5 239.567 44.5C239.553 44.5 239.539 44.5 239.526 44.5C239.512 44.5 239.498 44.5 239.485 44.5C239.471 44.5 239.457 44.5 239.444 44.5C239.43 44.5 239.416 44.5 239.403 44.5C239.389 44.5 239.375 44.5 239.362 44.5C239.348 44.5 239.334 44.5 239.321 44.5C239.307 44.5 239.293 44.5 239.279 44.5C239.266 44.5 239.252 44.5 239.238 44.5C239.225 44.5 239.211 44.5 239.197 44.5C239.184 44.5 239.17 44.5 239.156 44.5C239.143 44.5 239.129 44.5 239.115 44.5C239.101 44.5 239.088 44.5 239.074 44.5C239.06 44.5 239.047 44.5 239.033 44.5C239.019 44.5 239.005 44.5 238.992 44.5C238.978 44.5 238.964 44.5 238.95 44.5C238.937 44.5 238.923 44.5 238.909 44.5C238.895 44.5 238.882 44.5 238.868 44.5C238.854 44.5 238.84 44.5 238.827 44.5C238.813 44.5 238.799 44.5 238.785 44.5C238.772 44.5 238.758 44.5 238.744 44.5C238.73 44.5 238.716 44.5 238.703 44.5C238.689 44.5 238.675 44.5 238.661 44.5C238.647 44.5 238.633 44.5 238.62 44.5C238.606 44.5 238.592 44.5 238.578 44.5C238.564 44.5 238.55 44.5 238.537 44.5C238.523 44.5 238.509 44.5 238.495 44.5C238.481 44.5 238.467 44.5 238.453 44.5C238.44 44.5 238.426 44.5 238.412 44.5C238.398 44.5 238.384 44.5 238.37 44.5C238.356 44.5 238.342 44.5 238.328 44.5C238.314 44.5 238.3 44.5 238.286 44.5C238.272 44.5 238.259 44.5 238.245 44.5C238.231 44.5 238.217 44.5 238.203 44.5C238.189 44.5 238.175 44.5 238.161 44.5C238.147 44.5 238.133 44.5 238.119 44.5C238.105 44.5 238.091 44.5 238.077 44.5C238.062 44.5 238.048 44.5 238.034 44.5C238.02 44.5 238.006 44.5 237.992 44.5C237.978 44.5 237.964 44.5 237.95 44.5C237.936 44.5 237.922 44.5 237.908 44.5C237.893 44.5 237.879 44.5 237.865 44.5C237.851 44.5 237.837 44.5 237.823 44.5C237.809 44.5 237.794 44.5 237.78 44.5C237.766 44.5 237.752 44.5 237.738 44.5C237.723 44.5 237.709 44.5 237.695 44.5C237.681 44.5 237.666 44.5 237.652 44.5C237.638 44.5 237.624 44.5 237.609 44.5C237.595 44.5 237.581 44.5 237.566 44.5C237.552 44.5 237.538 44.5 237.524 44.5C237.509 44.5 237.495 44.5 237.48 44.5C237.466 44.5 237.452 44.5 237.437 44.5C237.423 44.5 237.409 44.5 237.394 44.5C237.38 44.5 237.365 44.5 237.351 44.5C237.336 44.5 237.322 44.5 237.308 44.5C237.293 44.5 237.279 44.5 237.264 44.5C237.25 44.5 237.235 44.5 237.221 44.5C237.206 44.5 237.191 44.5 237.177 44.5C237.162 44.5 237.148 44.5 237.133 44.5C237.119 44.5 237.104 44.5 237.089 44.5C237.075 44.5 237.06 44.5 237.046 44.5C237.031 44.5 237.016 44.5 237.002 44.5C236.987 44.5 236.972 44.5 236.957 44.5C236.943 44.5 236.928 44.5 236.913 44.5C236.899 44.5 236.884 44.5 236.869 44.5C236.854 44.5 236.839 44.5 236.825 44.5C236.81 44.5 236.795 44.5 236.78 44.5C236.765 44.5 236.75 44.5 236.736 44.5C236.721 44.5 236.706 44.5 236.691 44.5C236.676 44.5 236.661 44.5 236.646 44.5C236.631 44.5 236.616 44.5 236.601 44.5C236.586 44.5 236.571 44.5 236.556 44.5C236.541 44.5 236.526 44.5 236.511 44.5C236.496 44.5 236.481 44.5 236.466 44.5C236.451 44.5 236.436 44.5 236.421 44.5C236.405 44.5 236.39 44.5 236.375 44.5C236.36 44.5 236.345 44.5 236.33 44.5C236.314 44.5 236.299 44.5 236.284 44.5C236.269 44.5 236.253 44.5 236.238 44.5C236.223 44.5 236.207 44.5 236.192 44.5C236.177 44.5 236.161 44.5 236.146 44.5C236.131 44.5 236.115 44.5 236.1 44.5C236.085 44.5 236.069 44.5 236.054 44.5C236.038 44.5 236.023 44.5 236.007 44.5C235.992 44.5 235.976 44.5 235.961 44.5C235.945 44.5 235.93 44.5 235.914 44.5C235.898 44.5 235.883 44.5 235.867 44.5C235.852 44.5 235.836 44.5 235.82 44.5C235.805 44.5 235.789 44.5 235.773 44.5C235.757 44.5 235.742 44.5 235.726 44.5C235.71 44.5 235.694 44.5 235.679 44.5C235.663 44.5 235.647 44.5 235.631 44.5C235.615 44.5 235.599 44.5 235.584 44.5C235.568 44.5 235.552 44.5 235.536 44.5C235.52 44.5 235.504 44.5 235.488 44.5C235.472 44.5 235.456 44.5 235.44 44.5C235.424 44.5 235.408 44.5 235.392 44.5C235.376 44.5 235.359 44.5 235.343 44.5C235.327 44.5 235.311 44.5 235.295 44.5C235.279 44.5 235.262 44.5 235.246 44.5C235.23 44.5 235.214 44.5 235.197 44.5C235.181 44.5 235.165 44.5 235.148 44.5C235.132 44.5 235.116 44.5 235.099 44.5C235.083 44.5 235.067 44.5 235.05 44.5C235.034 44.5 235.017 44.5 235.001 44.5C234.984 44.5 234.968 44.5 234.951 44.5C234.935 44.5 234.918 44.5 234.901 44.5C234.885 44.5 234.868 44.5 234.852 44.5C234.835 44.5 234.818 44.5 234.802 44.5C234.785 44.5 234.768 44.5 234.751 44.5C234.735 44.5 234.718 44.5 234.701 44.5C234.684 44.5 234.667 44.5 234.65 44.5C234.634 44.5 234.617 44.5 234.6 44.5C234.583 44.5 234.566 44.5 234.549 44.5C234.532 44.5 234.515 44.5 234.498 44.5C234.481 44.5 234.464 44.5 234.447 44.5C234.429 44.5 234.412 44.5 234.395 44.5C234.378 44.5 234.361 44.5 234.344 44.5C234.326 44.5 234.309 44.5 234.292 44.5C234.274 44.5 234.257 44.5 234.24 44.5C234.222 44.5 234.205 44.5 234.188 44.5C234.17 44.5 234.153 44.5 234.135 44.5C234.118 44.5 234.1 44.5 234.083 44.5C234.065 44.5 234.048 44.5 234.03 44.5C234.013 44.5 233.995 44.5 233.977 44.5C233.96 44.5 233.942 44.5 233.924 44.5C233.907 44.5 233.889 44.5 233.871 44.5C233.853 44.5 233.836 44.5 233.818 44.5C233.8 44.5 233.782 44.5 233.764 44.5C233.746 44.5 233.728 44.5 233.71 44.5C233.692 44.5 233.674 44.5 233.656 44.5C233.638 44.5 233.62 44.5 233.602 44.5C233.584 44.5 233.566 44.5 233.548 44.5C233.53 44.5 233.511 44.5 233.493 44.5C233.475 44.5 233.457 44.5 233.438 44.5C233.42 44.5 233.402 44.5 233.383 44.5C233.365 44.5 233.347 44.5 233.328 44.5C233.31 44.5 233.291 44.5 233.273 44.5C233.254 44.5 233.236 44.5 233.217 44.5C233.198 44.5 233.18 44.5 233.161 44.5C233.143 44.5 233.124 44.5 233.105 44.5C233.086 44.5 233.068 44.5 233.049 44.5C233.03 44.5 233.011 44.5 232.992 44.5C232.974 44.5 232.955 44.5 232.936 44.5C232.917 44.5 232.898 44.5 232.879 44.5C232.86 44.5 232.841 44.5 232.822 44.5C232.803 44.5 232.784 44.5 232.764 44.5C232.745 44.5 232.726 44.5 232.707 44.5C232.688 44.5 232.668 44.5 232.649 44.5C232.63 44.5 232.611 44.5 232.591 44.5C232.572 44.5 232.552 44.5 232.533 44.5C232.513 44.5 232.494 44.5 232.474 44.5C232.455 44.5 232.435 44.5 232.416 44.5C232.396 44.5 232.377 44.5 232.357 44.5C232.337 44.5 232.318 44.5 232.298 44.5C232.278 44.5 232.258 44.5 232.238 44.5C232.219 44.5 232.199 44.5 232.179 44.5C232.159 44.5 232.139 44.5 232.119 44.5C232.099 44.5 232.079 44.5 232.059 44.5C232.039 44.5 232.019 44.5 231.999 44.5C231.978 44.5 231.958 44.5 231.938 44.5C231.918 44.5 231.898 44.5 231.877 44.5C231.857 44.5 231.837 44.5 231.816 44.5C231.796 44.5 231.775 44.5 231.755 44.5C231.734 44.5 231.714 44.5 231.693 44.5C231.673 44.5 231.652 44.5 231.632 44.5C231.611 44.5 231.59 44.5 231.57 44.5C231.549 44.5 231.528 44.5 231.507 44.5C231.487 44.5 231.466 44.5 231.445 44.5C231.424 44.5 231.403 44.5 231.382 44.5C231.361 44.5 231.34 44.5 231.319 44.5C231.298 44.5 231.277 44.5 231.256 44.5C231.235 44.5 231.213 44.5 231.192 44.5C231.171 44.5 231.15 44.5 231.128 44.5C231.107 44.5 231.086 44.5 231.064 44.5C231.043 44.5 231.021 44.5 231 44.5V43.5Z" fill="black"/>
<path d="M100.854 33.8536C101.049 33.6583 101.049 33.3417 100.854 33.1464L97.6716 29.9645C97.4763 29.7692 97.1597 29.7692 96.9645 29.9645C96.7692 30.1597 96.7692 30.4763 96.9645 30.6716L99.7929 33.5L96.9645 36.3284C96.7692 36.5237 96.7692 36.8403 96.9645 37.0355C97.1597 37.2308 97.4763 37.2308 97.6716 37.0355L100.854 33.8536ZM100.5 33C92.9354 33 89.3343 31.1695 87.5679 28.6069C85.7669 25.994 85.75 22.481 85.75 18.75C85.75 15.106 85.767 11.244 83.7554 8.32562C81.7093 5.35703 77.6854 3.5 70 3.5L70 4.5C77.5646 4.5 81.1657 6.33047 82.9321 8.89313C84.7331 11.506 84.75 15.019 84.75 18.75C84.75 22.394 84.7331 26.256 86.7446 29.1744C88.7907 32.143 92.8146 34 100.5 34L100.5 33Z" fill="black"/>
<path d="M100.854 53.6464C101.049 53.8417 101.049 54.1583 100.854 54.3536L97.6716 57.5355C97.4763 57.7308 97.1597 57.7308 96.9645 57.5355C96.7692 57.3403 96.7692 57.0237 96.9645 56.8284L99.7929 54L96.9645 51.1716C96.7692 50.9763 96.7692 50.6597 96.9645 50.4645C97.1597 50.2692 97.4763 50.2692 97.6716 50.4645L100.854 53.6464ZM100.5 54.5C92.9354 54.5 89.3343 56.3305 87.5679 58.8931C85.7669 61.506 85.75 65.019 85.75 68.75C85.75 72.394 85.7669 76.256 83.7554 79.1744C81.7093 82.143 77.6854 84 70 84L70 83C77.5646 83 81.1657 81.1695 82.9321 78.6069C84.733 75.994 84.75 72.481 84.75 68.75C84.75 65.106 84.7331 61.244 86.7446 58.3256C88.7907 55.357 92.8146 53.5 100.5 53.5L100.5 54.5Z" fill="black"/>
<path d="M100.854 43.1464C101.049 43.3417 101.049 43.6583 100.854 43.8536L97.6716 47.0355C97.4763 47.2308 97.1597 47.2308 96.9645 47.0355C96.7692 46.8403 96.7692 46.5237 96.9645 46.3284L99.7929 43.5L96.9645 40.6716C96.7692 40.4763 96.7692 40.1597 96.9645 39.9645C97.1597 39.7692 97.4763 39.7692 97.6716 39.9645L100.854 43.1464ZM100.5 44C100.479 44 100.457 44 100.436 44C100.414 44 100.393 44 100.372 44C100.35 44 100.329 44 100.308 44C100.287 44 100.265 44 100.244 44C100.223 44 100.202 44 100.181 44C100.16 44 100.139 44 100.118 44C100.097 44 100.076 44 100.055 44C100.034 44 100.013 44 99.9927 44C99.9719 44 99.9511 44 99.9304 44C99.9097 44 99.889 44 99.8684 44C99.8478 44 99.8272 44 99.8066 44C99.7861 44 99.7656 44 99.7451 44C99.7246 44 99.7042 44 99.6838 44C99.6634 44 99.6431 44 99.6228 44C99.6025 44 99.5822 44 99.562 44C99.5418 44 99.5216 44 99.5014 44C99.4813 44 99.4612 44 99.4411 44C99.4211 44 99.401 44 99.3811 44C99.3611 44 99.3411 44 99.3212 44C99.3013 44 99.2814 44 99.2616 44C99.2418 44 99.222 44 99.2022 44C99.1825 44 99.1628 44 99.1431 44C99.1234 44 99.1038 44 99.0842 44C99.0646 44 99.0451 44 99.0255 44C99.006 44 98.9865 44 98.9671 44C98.9476 44 98.9282 44 98.9089 44C98.8895 44 98.8702 44 98.8509 44C98.8316 44 98.8123 44 98.7931 44C98.7739 44 98.7547 44 98.7355 44C98.7164 44 98.6973 44 98.6782 44C98.6591 44 98.6401 44 98.6211 44C98.6021 44 98.5831 44 98.5642 44C98.5453 44 98.5264 44 98.5075 44C98.4887 44 98.4699 44 98.4511 44C98.4323 44 98.4135 44 98.3948 44C98.3761 44 98.3574 44 98.3388 44C98.3201 44 98.3015 44 98.283 44C98.2644 44 98.2458 44 98.2273 44C98.2088 44 98.1904 44 98.1719 44C98.1535 44 98.1351 44 98.1167 44C98.0983 44 98.08 44 98.0617 44C98.0434 44 98.0251 44 98.0069 44C97.9887 44 97.9705 44 97.9523 44C97.9341 44 97.916 44 97.8979 44C97.8798 44 97.8617 44 97.8437 44C97.8257 44 97.8077 44 97.7897 44C97.7717 44 97.7538 44 97.7359 44C97.718 44 97.7001 44 97.6823 44C97.6644 44 97.6466 44 97.6289 44C97.6111 44 97.5933 44 97.5756 44C97.5579 44 97.5402 44 97.5226 44C97.5049 44 97.4873 44 97.4697 44C97.4521 44 97.4346 44 97.4171 44C97.3995 44 97.382 44 97.3646 44C97.3471 44 97.3297 44 97.3123 44C97.2949 44 97.2775 44 97.2602 44C97.2428 44 97.2255 44 97.2082 44C97.1909 44 97.1737 44 97.1565 44C97.1393 44 97.1221 44 97.1049 44C97.0877 44 97.0706 44 97.0535 44C97.0364 44 97.0193 44 97.0023 44C96.9852 44 96.9682 44 96.9512 44C96.9342 44 96.9173 44 96.9003 44C96.8834 44 96.8665 44 96.8496 44C96.8327 44 96.8159 44 96.7991 44C96.7822 44 96.7655 44 96.7487 44C96.7319 44 96.7152 44 96.6985 44C96.6818 44 96.6651 44 96.6484 44C96.6318 44 96.6151 44 96.5985 44C96.5819 44 96.5654 44 96.5488 44C96.5323 44 96.5158 44 96.4993 44C96.4828 44 96.4663 44 96.4499 44C96.4334 44 96.417 44 96.4006 44C96.3842 44 96.3679 44 96.3515 44C96.3352 44 96.3189 44 96.3026 44C96.2863 44 96.27 44 96.2538 44C96.2376 44 96.2213 44 96.2052 44C96.189 44 96.1728 44 96.1567 44C96.1405 44 96.1244 44 96.1083 44C96.0923 44 96.0762 44 96.0602 44C96.0441 44 96.0281 44 96.0121 44C95.9961 44 95.9801 44 95.9642 44C95.9483 44 95.9323 44 95.9164 44C95.9006 44 95.8847 44 95.8688 44C95.853 44 95.8372 44 95.8214 44C95.8055 44 95.7898 44 95.774 44C95.7583 44 95.7425 44 95.7268 44C95.7111 44 95.6954 44 95.6797 44C95.6641 44 95.6484 44 95.6328 44C95.6172 44 95.6016 44 95.586 44C95.5704 44 95.5549 44 95.5393 44C95.5238 44 95.5083 44 95.4928 44C95.4773 44 95.4618 44 95.4464 44C95.4309 44 95.4155 44 95.4001 44C95.3847 44 95.3693 44 95.3539 44C95.3385 44 95.3232 44 95.3079 44C95.2925 44 95.2772 44 95.2619 44C95.2467 44 95.2314 44 95.2161 44C95.2009 44 95.1857 44 95.1705 44C95.1552 44 95.1401 44 95.1249 44C95.1097 44 95.0946 44 95.0794 44C95.0643 44 95.0492 44 95.0341 44C95.019 44 95.0039 44 94.9889 44C94.9738 44 94.9588 44 94.9438 44C94.9287 44 94.9137 44 94.8988 44C94.8838 44 94.8688 44 94.8539 44C94.8389 44 94.824 44 94.8091 44C94.7942 44 94.7793 44 94.7644 44C94.7495 44 94.7347 44 94.7198 44C94.705 44 94.6902 44 94.6753 44C94.6605 44 94.6458 44 94.631 44C94.6162 44 94.6014 44 94.5867 44C94.572 44 94.5572 44 94.5425 44C94.5278 44 94.5131 44 94.4984 44C94.4838 44 94.4691 44 94.4545 44C94.4398 44 94.4252 44 94.4106 44C94.396 44 94.3814 44 94.3668 44C94.3522 44 94.3376 44 94.3231 44C94.3085 44 94.294 44 94.2794 44C94.2649 44 94.2504 44 94.2359 44C94.2214 44 94.2069 44 94.1925 44C94.178 44 94.1635 44 94.1491 44C94.1347 44 94.1202 44 94.1058 44C94.0914 44 94.077 44 94.0626 44C94.0482 44 94.0339 44 94.0195 44C94.0051 44 93.9908 44 93.9765 44C93.9621 44 93.9478 44 93.9335 44C93.9192 44 93.9049 44 93.8906 44C93.8763 44 93.8621 44 93.8478 44C93.8336 44 93.8193 44 93.8051 44C93.7908 44 93.7766 44 93.7624 44C93.7482 44 93.734 44 93.7198 44C93.7056 44 93.6915 44 93.6773 44C93.6631 44 93.649 44 93.6348 44C93.6207 44 93.6066 44 93.5924 44C93.5783 44 93.5642 44 93.5501 44C93.536 44 93.5219 44 93.5078 44C93.4938 44 93.4797 44 93.4656 44C93.4516 44 93.4375 44 93.4235 44C93.4094 44 93.3954 44 93.3814 44C93.3674 44 93.3534 44 93.3394 44C93.3254 44 93.3114 44 93.2974 44C93.2834 44 93.2694 44 93.2555 44C93.2415 44 93.2275 44 93.2136 44C93.1996 44 93.1857 44 93.1718 44C93.1578 44 93.1439 44 93.13 44C93.1161 44 93.1022 44 93.0883 44C93.0744 44 93.0605 44 93.0466 44C93.0327 44 93.0188 44 93.005 44C92.9911 44 92.9772 44 92.9634 44C92.9495 44 92.9357 44 92.9218 44C92.908 44 92.8942 44 92.8803 44C92.8665 44 92.8527 44 92.8389 44C92.825 44 92.8112 44 92.7974 44C92.7836 44 92.7698 44 92.756 44C92.7422 44 92.7285 44 92.7147 44C92.7009 44 92.6871 44 92.6734 44C92.6596 44 92.6458 44 92.6321 44C92.6183 44 92.6045 44 92.5908 44C92.577 44 92.5633 44 92.5496 44C92.5358 44 92.5221 44 92.5084 44C92.4946 44 92.4809 44 92.4672 44C92.4534 44 92.4397 44 92.426 44C92.4123 44 92.3986 44 92.3849 44C92.3712 44 92.3575 44 92.3438 44C92.3301 44 92.3164 44 92.3027 44C92.289 44 92.2753 44 92.2616 44C92.2479 44 92.2342 44 92.2205 44C92.2068 44 92.1932 44 92.1795 44C92.1658 44 92.1521 44 92.1385 44C92.1248 44 92.1111 44 92.0974 44C92.0838 44 92.0701 44 92.0564 44C92.0428 44 92.0291 44 92.0154 44C92.0018 44 91.9881 44 91.9744 44C91.9608 44 91.9471 44 91.9335 44C91.9198 44 91.9061 44 91.8925 44C91.8788 44 91.8652 44 91.8515 44C91.8379 44 91.8242 44 91.8105 44C91.7969 44 91.7832 44 91.7696 44C91.7559 44 91.7423 44 91.7286 44C91.7149 44 91.7013 44 91.6876 44C91.674 44 91.6603 44 91.6466 44C91.633 44 91.6193 44 91.6057 44C91.592 44 91.5783 44 91.5647 44C91.551 44 91.5373 44 91.5237 44C91.51 44 91.4963 44 91.4827 44C91.469 44 91.4553 44 91.4416 44C91.428 44 91.4143 44 91.4006 44C91.3869 44 91.3733 44 91.3596 44C91.3459 44 91.3322 44 91.3185 44C91.3048 44 91.2911 44 91.2774 44C91.2637 44 91.25 44 91.2363 44C91.2226 44 91.2089 44 91.1952 44C91.1815 44 91.1678 44 91.1541 44C91.1404 44 91.1266 44 91.1129 44C91.0992 44 91.0855 44 91.0717 44C91.058 44 91.0443 44 91.0305 44C91.0168 44 91.003 44 90.9893 44C90.9755 44 90.9618 44 90.948 44C90.9342 44 90.9205 44 90.9067 44C90.8929 44 90.8792 44 90.8654 44C90.8516 44 90.8378 44 90.824 44C90.8102 44 90.7964 44 90.7826 44C90.7688 44 90.755 44 90.7412 44C90.7274 44 90.7135 44 90.6997 44C90.6859 44 90.672 44 90.6582 44C90.6443 44 90.6305 44 90.6166 44C90.6028 44 90.5889 44 90.575 44C90.5612 44 90.5473 44 90.5334 44C90.5195 44 90.5056 44 90.4917 44C90.4778 44 90.4639 44 90.45 44C90.4361 44 90.4221 44 90.4082 44C90.3943 44 90.3803 44 90.3664 44C90.3524 44 90.3385 44 90.3245 44C90.3105 44 90.2966 44 90.2826 44C90.2686 44 90.2546 44 90.2406 44C90.2266 44 90.2126 44 90.1985 44C90.1845 44 90.1705 44 90.1565 44C90.1424 44 90.1284 44 90.1143 44C90.1002 44 90.0862 44 90.0721 44C90.058 44 90.0439 44 90.0298 44C90.0157 44 90.0016 44 89.9875 44C89.9733 44 89.9592 44 89.9451 44C89.9309 44 89.9168 44 89.9026 44C89.8884 44 89.8742 44 89.8601 44C89.8459 44 89.8317 44 89.8174 44C89.8032 44 89.789 44 89.7748 44C89.7605 44 89.7463 44 89.732 44C89.7178 44 89.7035 44 89.6892 44C89.6749 44 89.6606 44 89.6463 44C89.632 44 89.6177 44 89.6033 44C89.589 44 89.5746 44 89.5603 44C89.5459 44 89.5315 44 89.5172 44C89.5028 44 89.4884 44 89.4739 44C89.4595 44 89.4451 44 89.4307 44C89.4162 44 89.4018 44 89.3873 44C89.3728 44 89.3583 44 89.3438 44C89.3293 44 89.3148 44 89.3003 44C89.2857 44 89.2712 44 89.2566 44C89.2421 44 89.2275 44 89.2129 44C89.1983 44 89.1837 44 89.1691 44C89.1545 44 89.1399 44 89.1252 44C89.1106 44 89.0959 44 89.0812 44C89.0665 44 89.0518 44 89.0371 44C89.0224 44 89.0077 44 88.9929 44C88.9782 44 88.9634 44 88.9486 44C88.9338 44 88.919 44 88.9042 44C88.8894 44 88.8746 44 88.8597 44C88.8449 44 88.83 44 88.8152 44C88.8003 44 88.7854 44 88.7705 44C88.7555 44 88.7406 44 88.7257 44C88.7107 44 88.6957 44 88.6807 44C88.6658 44 88.6507 44 88.6357 44C88.6207 44 88.6057 44 88.5906 44C88.5755 44 88.5605 44 88.5454 44C88.5303 44 88.5151 44 88.5 44C88.4849 44 88.4697 44 88.4545 44C88.4394 44 88.4242 44 88.4089 44C88.3937 44 88.3785 44 88.3632 44C88.348 44 88.3327 44 88.3174 44C88.3021 44 88.2868 44 88.2715 44C88.2562 44 88.2408 44 88.2254 44C88.2101 44 88.1947 44 88.1792 44C88.1638 44 88.1484 44 88.1329 44C88.1175 44 88.102 44 88.0865 44C88.071 44 88.0555 44 88.0399 44C88.0244 44 88.0088 44 87.9932 44C87.9777 44 87.962 44 87.9464 44C87.9308 44 87.9151 44 87.8995 44C87.8838 44 87.8681 44 87.8524 44C87.8366 44 87.8209 44 87.8051 44C87.7894 44 87.7736 44 87.7578 44C87.742 44 87.7261 44 87.7103 44C87.6944 44 87.6785 44 87.6626 44C87.6467 44 87.6308 44 87.6149 44C87.5989 44 87.5829 44 87.5669 44C87.5509 44 87.5349 44 87.5189 44C87.5028 44 87.4868 44 87.4707 44C87.4546 44 87.4384 44 87.4223 44C87.4062 44 87.39 44 87.3738 44C87.3576 44 87.3414 44 87.3251 44C87.3089 44 87.2926 44 87.2763 44C87.26 44 87.2437 44 87.2274 44C87.211 44 87.1947 44 87.1783 44C87.1619 44 87.1454 44 87.129 44C87.1125 44 87.0961 44 87.0796 44C87.0631 44 87.0465 44 87.03 44C87.0134 44 86.9968 44 86.9802 44C86.9636 44 86.947 44 86.9303 44C86.9137 44 86.897 44 86.8802 44C86.8635 44 86.8468 44 86.83 44C86.8132 44 86.7964 44 86.7796 44C86.7628 44 86.7459 44 86.729 44C86.7122 44 86.6952 44 86.6783 44C86.6614 44 86.6444 44 86.6274 44C86.6104 44 86.5934 44 86.5763 44C86.5592 44 86.5422 44 86.5251 44C86.5079 44 86.4908 44 86.4736 44C86.4564 44 86.4392 44 86.422 44C86.4048 44 86.3875 44 86.3702 44C86.3529 44 86.3356 44 86.3183 44C86.3009 44 86.2835 44 86.2661 44C86.2487 44 86.2313 44 86.2138 44C86.1963 44 86.1788 44 86.1613 44C86.1438 44 86.1262 44 86.1086 44C86.091 44 86.0734 44 86.0557 44C86.038 44 86.0204 44 86.0026 44C85.9849 44 85.9672 44 85.9494 44C85.9316 44 85.9138 44 85.8959 44C85.8781 44 85.8602 44 85.8423 44C85.8244 44 85.8064 44 85.7884 44C85.7705 44 85.7525 44 85.7344 44C85.7164 44 85.6983 44 85.6802 44C85.6621 44 85.6439 44 85.6257 44C85.6076 44 85.5894 44 85.5711 44C85.5529 44 85.5346 44 85.5163 44C85.498 44 85.4796 44 85.4613 44C85.4429 44 85.4245 44 85.406 44C85.3876 44 85.3691 44 85.3506 44C85.3321 44 85.3135 44 85.2949 44C85.2763 44 85.2577 44 85.2391 44C85.2204 44 85.2017 44 85.183 44C85.1643 44 85.1455 44 85.1267 44C85.1079 44 85.0891 44 85.0702 44C85.0513 44 85.0324 44 85.0135 44C84.9946 44 84.9756 44 84.9566 44C84.9376 44 84.9185 44 84.8994 44C84.8803 44 84.8612 44 84.8421 44C84.8229 44 84.8037 44 84.7845 44C84.7653 44 84.746 44 84.7267 44C84.7074 44 84.688 44 84.6686 44C84.6493 44 84.6298 44 84.6104 44C84.5909 44 84.5714 44 84.5519 44C84.5324 44 84.5128 44 84.4932 44C84.4736 44 84.4539 44 84.4343 44C84.4146 44 84.3949 44 84.3751 44C84.3553 44 84.3355 44 84.3157 44C84.2958 44 84.276 44 84.2561 44C84.2361 44 84.2162 44 84.1962 44C84.1762 44 84.1561 44 84.1361 44C84.116 44 84.0959 44 84.0757 44C84.0556 44 84.0354 44 84.0151 44C83.9949 44 83.9746 44 83.9543 44C83.934 44 83.9136 44 83.8932 44C83.8728 44 83.8524 44 83.8319 44C83.8114 44 83.7909 44 83.7704 44C83.7498 44 83.7292 44 83.7086 44C83.6879 44 83.6672 44 83.6465 44C83.6258 44 83.605 44 83.5842 44C83.5634 44 83.5425 44 83.5216 44C83.5007 44 83.4798 44 83.4588 44C83.4378 44 83.4168 44 83.3958 44C83.3747 44 83.3536 44 83.3324 44C83.3113 44 83.2901 44 83.2688 44C83.2476 44 83.2263 44 83.205 44C83.1837 44 83.1623 44 83.1409 44C83.1195 44 83.098 44 83.0765 44C83.0551 44 83.0335 44 83.0119 44C82.9903 44 82.9687 44 82.947 44C82.9254 44 82.9036 44 82.8819 44C82.8601 44 82.8383 44 82.8165 44C82.7946 44 82.7727 44 82.7508 44C82.7288 44 82.7068 44 82.6848 44C82.6628 44 82.6407 44 82.6186 44C82.5964 44 82.5743 44 82.552 44C82.5298 44 82.5076 44 82.4853 44C82.463 44 82.4406 44 82.4182 44C82.3958 44 82.3734 44 82.3509 44C82.3284 44 82.3058 44 82.2832 44C82.2607 44 82.238 44 82.2153 44C82.1927 44 82.1699 44 82.1472 44C82.1244 44 82.1016 44 82.0787 44C82.0558 44 82.0329 44 82.0099 44C81.987 44 81.964 44 81.9409 44C81.9178 44 81.8947 44 81.8716 44C81.8484 44 81.8252 44 81.8019 44C81.7787 44 81.7554 44 81.732 44C81.7087 44 81.6853 44 81.6618 44C81.6384 44 81.6149 44 81.5913 44C81.5678 44 81.5442 44 81.5205 44C81.4969 44 81.4732 44 81.4494 44C81.4257 44 81.4019 44 81.3781 44C81.3542 44 81.3303 44 81.3064 44C81.2824 44 81.2584 44 81.2344 44C81.2103 44 81.1862 44 81.1621 44C81.1379 44 81.1137 44 81.0895 44C81.0652 44 81.0409 44 81.0166 44C80.9922 44 80.9678 44 80.9434 44C80.9189 44 80.8944 44 80.8698 44C80.8453 44 80.8207 44 80.796 44C80.7713 44 80.7466 44 80.7219 44C80.6971 44 80.6723 44 80.6474 44C80.6225 44 80.5976 44 80.5726 44C80.5476 44 80.5226 44 80.4975 44C80.4724 44 80.4473 44 80.4221 44C80.3969 44 80.3717 44 80.3464 44C80.3211 44 80.2957 44 80.2703 44C80.2449 44 80.2195 44 80.194 44C80.1685 44 80.1429 44 80.1173 44C80.0917 44 80.066 44 80.0403 44C80.0145 44 79.9887 44 79.9629 44C79.9371 44 79.9112 44 79.8852 44C79.8593 44 79.8333 44 79.8072 44C79.7812 44 79.7551 44 79.7289 44C79.7027 44 79.6765 44 79.6502 44C79.6239 44 79.5976 44 79.5712 44C79.5448 44 79.5184 44 79.4919 44C79.4654 44 79.4388 44 79.4122 44C79.3856 44 79.3589 44 79.3322 44C79.3054 44 79.2787 44 79.2518 44C79.225 44 79.1981 44 79.1711 44C79.1442 44 79.1171 44 79.0901 44C79.063 44 79.0359 44 79.0087 44C78.9815 44 78.9543 44 78.927 44C78.8997 44 78.8723 44 78.8449 44C78.8175 44 78.79 44 78.7625 44C78.7349 44 78.7073 44 78.6797 44C78.652 44 78.6243 44 78.5965 44C78.5688 44 78.5409 44 78.5131 44C78.4852 44 78.4572 44 78.4292 44C78.4012 44 78.3731 44 78.345 44C78.3169 44 78.2887 44 78.2605 44C78.2322 44 78.2039 44 78.1756 44C78.1472 44 78.1188 44 78.0903 44C78.0618 44 78.0333 44 78.0046 44C77.976 44 77.9474 44 77.9186 44C77.8899 44 77.8611 44 77.8323 44C77.8034 44 77.7745 44 77.7456 44C77.7166 44 77.6875 44 77.6585 44C77.6294 44 77.6002 44 77.571 44C77.5418 44 77.5125 44 77.4831 44C77.4538 44 77.4244 44 77.3949 44C77.3655 44 77.3359 44 77.3063 44C77.2767 44 77.2471 44 77.2174 44C77.1877 44 77.1579 44 77.128 44C77.0982 44 77.0683 44 77.0383 44C77.0084 44 76.9783 44 76.9482 44C76.9181 44 76.888 44 76.8577 44C76.8275 44 76.7972 44 76.7669 44C76.7365 44 76.7061 44 76.6756 44C76.6452 44 76.6146 44 76.584 44C76.5534 44 76.5227 44 76.492 44C76.4612 44 76.4304 44 76.3996 44C76.3687 44 76.3378 44 76.3068 44C76.2758 44 76.2447 44 76.2136 44C76.1825 44 76.1513 44 76.12 44C76.0887 44 76.0574 44 76.026 44C75.9946 44 75.9632 44 75.9316 44C75.9001 44 75.8685 44 75.8369 44C75.8052 44 75.7735 44 75.7417 44C75.7099 44 75.678 44 75.6461 44C75.6142 44 75.5822 44 75.5501 44C75.5181 44 75.486 44 75.4538 44C75.4216 44 75.3893 44 75.357 44C75.3247 44 75.2923 44 75.2598 44C75.2273 44 75.1948 44 75.1622 44C75.1296 44 75.0969 44 75.0642 44C75.0315 44 74.9986 44 74.9658 44C74.9329 44 74.9 44 74.8669 44C74.8339 44 74.8008 44 74.7677 44C74.7345 44 74.7013 44 74.668 44C74.6347 44 74.6014 44 74.568 44C74.5345 44 74.501 44 74.4675 44C74.4339 44 74.4003 44 74.3665 44C74.3328 44 74.2991 44 74.2652 44C74.2314 44 74.1974 44 74.1635 44C74.1295 44 74.0954 44 74.0613 44C74.0271 44 73.9929 44 73.9587 44C73.9244 44 73.89 44 73.8556 44C73.8212 44 73.7867 44 73.7522 44C73.7176 44 73.683 44 73.6483 44C73.6136 44 73.5788 44 73.5439 44C73.5091 44 73.4742 44 73.4392 44C73.4042 44 73.3691 44 73.334 44C73.2988 44 73.2636 44 73.2283 44C73.1931 44 73.1577 44 73.1223 44C73.0869 44 73.0513 44 73.0158 44C72.9802 44 72.9445 44 72.9088 44C72.8731 44 72.8373 44 72.8014 44C72.7656 44 72.7296 44 72.6936 44C72.6576 44 72.6215 44 72.5853 44C72.5492 44 72.5129 44 72.4766 44C72.4403 44 72.4039 44 72.3674 44C72.331 44 72.2944 44 72.2578 44C72.2212 44 72.1845 44 72.1477 44C72.111 44 72.0741 44 72.0372 44C72.0003 44 71.9633 44 71.9262 44C71.8892 44 71.852 44 71.8148 44C71.7776 44 71.7403 44 71.7029 44C71.6655 44 71.6281 44 71.5906 44C71.553 44 71.5154 44 71.4778 44C71.4401 44 71.4023 44 71.3645 44C71.3267 44 71.2887 44 71.2508 44C71.2128 44 71.1747 44 71.1366 44C71.0984 44 71.0602 44 71.0219 44C70.9836 44 70.9452 44 70.9068 44C70.8683 44 70.8298 44 70.7912 44C70.7526 44 70.7139 44 70.6751 44C70.6363 44 70.5975 44 70.5586 44C70.5196 44 70.4806 44 70.4416 44C70.4025 44 70.3633 44 70.3241 44C70.2848 44 70.2455 44 70.2061 44C70.1667 44 70.1272 44 70.0877 44C70.0481 44 70.0085 44 69.9688 44C69.929 44 69.8892 44 69.8494 44C69.8095 44 69.7695 44 69.7295 44C69.6894 44 69.6493 44 69.6091 44C69.5689 44 69.5286 44 69.4883 44C69.4479 44 69.4075 44 69.3669 44C69.3264 44 69.2858 44 69.2451 44C69.2044 44 69.1637 44 69.1228 44C69.0819 44 69.041 44 69 44L69 43C69.041 43 69.0819 43 69.1228 43C69.1637 43 69.2044 43 69.2451 43C69.2858 43 69.3264 43 69.3669 43C69.4075 43 69.4479 43 69.4883 43C69.5286 43 69.5689 43 69.6091 43C69.6493 43 69.6894 43 69.7295 43C69.7695 43 69.8095 43 69.8494 43C69.8892 43 69.929 43 69.9688 43C70.0085 43 70.0481 43 70.0877 43C70.1272 43 70.1667 43 70.2061 43C70.2455 43 70.2848 43 70.3241 43C70.3633 43 70.4025 43 70.4416 43C70.4806 43 70.5196 43 70.5586 43C70.5975 43 70.6363 43 70.6751 43C70.7139 43 70.7526 43 70.7912 43C70.8298 43 70.8683 43 70.9068 43C70.9452 43 70.9836 43 71.0219 43C71.0602 43 71.0984 43 71.1366 43C71.1747 43 71.2128 43 71.2508 43C71.2887 43 71.3267 43 71.3645 43C71.4023 43 71.4401 43 71.4778 43C71.5154 43 71.553 43 71.5906 43C71.6281 43 71.6655 43 71.7029 43C71.7403 43 71.7776 43 71.8148 43C71.852 43 71.8892 43 71.9262 43C71.9633 43 72.0003 43 72.0372 43C72.0741 43 72.111 43 72.1477 43C72.1845 43 72.2212 43 72.2578 43C72.2944 43 72.331 43 72.3674 43C72.4039 43 72.4403 43 72.4766 43C72.5129 43 72.5492 43 72.5853 43C72.6215 43 72.6576 43 72.6936 43C72.7296 43 72.7656 43 72.8014 43C72.8373 43 72.8731 43 72.9088 43C72.9445 43 72.9802 43 73.0158 43C73.0513 43 73.0869 43 73.1223 43C73.1577 43 73.1931 43 73.2283 43C73.2636 43 73.2988 43 73.334 43C73.3691 43 73.4042 43 73.4392 43C73.4742 43 73.5091 43 73.5439 43C73.5788 43 73.6136 43 73.6483 43C73.683 43 73.7176 43 73.7522 43C73.7867 43 73.8212 43 73.8556 43C73.89 43 73.9244 43 73.9587 43C73.9929 43 74.0271 43 74.0613 43C74.0954 43 74.1295 43 74.1635 43C74.1974 43 74.2314 43 74.2652 43C74.2991 43 74.3328 43 74.3665 43C74.4003 43 74.4339 43 74.4675 43C74.501 43 74.5345 43 74.568 43C74.6014 43 74.6347 43 74.668 43C74.7013 43 74.7345 43 74.7677 43C74.8008 43 74.8339 43 74.8669 43C74.9 43 74.9329 43 74.9658 43C74.9986 43 75.0315 43 75.0642 43C75.0969 43 75.1296 43 75.1622 43C75.1948 43 75.2273 43 75.2598 43C75.2923 43 75.3247 43 75.357 43C75.3893 43 75.4216 43 75.4538 43C75.486 43 75.5181 43 75.5501 43C75.5822 43 75.6142 43 75.6461 43C75.678 43 75.7099 43 75.7417 43C75.7735 43 75.8052 43 75.8369 43C75.8685 43 75.9001 43 75.9316 43C75.9632 43 75.9946 43 76.026 43C76.0574 43 76.0887 43 76.12 43C76.1513 43 76.1825 43 76.2136 43C76.2447 43 76.2758 43 76.3068 43C76.3378 43 76.3687 43 76.3996 43C76.4304 43 76.4612 43 76.492 43C76.5227 43 76.5534 43 76.584 43C76.6146 43 76.6452 43 76.6756 43C76.7061 43 76.7365 43 76.7669 43C76.7972 43 76.8275 43 76.8577 43C76.888 43 76.9181 43 76.9482 43C76.9783 43 77.0084 43 77.0383 43C77.0683 43 77.0982 43 77.128 43C77.1579 43 77.1877 43 77.2174 43C77.2471 43 77.2767 43 77.3063 43C77.3359 43 77.3655 43 77.3949 43C77.4244 43 77.4538 43 77.4831 43C77.5125 43 77.5418 43 77.571 43C77.6002 43 77.6294 43 77.6585 43C77.6875 43 77.7166 43 77.7456 43C77.7745 43 77.8034 43 77.8323 43C77.8611 43 77.8899 43 77.9186 43C77.9474 43 77.976 43 78.0046 43C78.0333 43 78.0618 43 78.0903 43C78.1188 43 78.1472 43 78.1756 43C78.2039 43 78.2322 43 78.2605 43C78.2887 43 78.3169 43 78.345 43C78.3731 43 78.4012 43 78.4292 43C78.4572 43 78.4852 43 78.5131 43C78.5409 43 78.5688 43 78.5965 43C78.6243 43 78.652 43 78.6797 43C78.7073 43 78.7349 43 78.7625 43C78.79 43 78.8175 43 78.8449 43C78.8723 43 78.8997 43 78.927 43C78.9543 43 78.9815 43 79.0087 43C79.0359 43 79.063 43 79.0901 43C79.1171 43 79.1442 43 79.1711 43C79.1981 43 79.225 43 79.2518 43C79.2787 43 79.3054 43 79.3322 43C79.3589 43 79.3856 43 79.4122 43C79.4388 43 79.4654 43 79.4919 43C79.5184 43 79.5448 43 79.5712 43C79.5976 43 79.6239 43 79.6502 43C79.6765 43 79.7027 43 79.7289 43C79.7551 43 79.7812 43 79.8072 43C79.8333 43 79.8593 43 79.8852 43C79.9112 43 79.9371 43 79.9629 43C79.9887 43 80.0145 43 80.0403 43C80.066 43 80.0917 43 80.1173 43C80.1429 43 80.1685 43 80.194 43C80.2195 43 80.2449 43 80.2703 43C80.2957 43 80.3211 43 80.3464 43C80.3717 43 80.3969 43 80.4221 43C80.4473 43 80.4724 43 80.4975 43C80.5226 43 80.5476 43 80.5726 43C80.5976 43 80.6225 43 80.6474 43C80.6723 43 80.6971 43 80.7219 43C80.7466 43 80.7713 43 80.796 43C80.8207 43 80.8453 43 80.8698 43C80.8944 43 80.9189 43 80.9434 43C80.9678 43 80.9922 43 81.0166 43C81.0409 43 81.0652 43 81.0895 43C81.1137 43 81.1379 43 81.1621 43C81.1862 43 81.2103 43 81.2344 43C81.2584 43 81.2824 43 81.3064 43C81.3303 43 81.3542 43 81.3781 43C81.4019 43 81.4257 43 81.4494 43C81.4732 43 81.4969 43 81.5205 43C81.5442 43 81.5678 43 81.5913 43C81.6149 43 81.6384 43 81.6618 43C81.6853 43 81.7087 43 81.732 43C81.7554 43 81.7787 43 81.8019 43C81.8252 43 81.8484 43 81.8716 43C81.8947 43 81.9178 43 81.9409 43C81.964 43 81.987 43 82.0099 43C82.0329 43 82.0558 43 82.0787 43C82.1016 43 82.1244 43 82.1472 43C82.1699 43 82.1927 43 82.2153 43C82.238 43 82.2607 43 82.2832 43C82.3058 43 82.3284 43 82.3509 43C82.3734 43 82.3958 43 82.4182 43C82.4406 43 82.463 43 82.4853 43C82.5076 43 82.5298 43 82.552 43C82.5743 43 82.5964 43 82.6186 43C82.6407 43 82.6628 43 82.6848 43C82.7068 43 82.7288 43 82.7508 43C82.7727 43 82.7946 43 82.8165 43C82.8383 43 82.8601 43 82.8819 43C82.9036 43 82.9254 43 82.947 43C82.9687 43 82.9903 43 83.0119 43C83.0335 43 83.0551 43 83.0765 43C83.098 43 83.1195 43 83.1409 43C83.1623 43 83.1837 43 83.205 43C83.2263 43 83.2476 43 83.2688 43C83.2901 43 83.3113 43 83.3324 43C83.3536 43 83.3747 43 83.3958 43C83.4168 43 83.4378 43 83.4588 43C83.4798 43 83.5007 43 83.5216 43C83.5425 43 83.5634 43 83.5842 43C83.605 43 83.6258 43 83.6465 43C83.6672 43 83.6879 43 83.7086 43C83.7292 43 83.7498 43 83.7704 43C83.7909 43 83.8114 43 83.8319 43C83.8524 43 83.8728 43 83.8932 43C83.9136 43 83.934 43 83.9543 43C83.9746 43 83.9949 43 84.0151 43C84.0354 43 84.0556 43 84.0757 43C84.0959 43 84.116 43 84.1361 43C84.1561 43 84.1762 43 84.1962 43C84.2162 43 84.2361 43 84.2561 43C84.276 43 84.2958 43 84.3157 43C84.3355 43 84.3553 43 84.3751 43C84.3949 43 84.4146 43 84.4343 43C84.4539 43 84.4736 43 84.4932 43C84.5128 43 84.5324 43 84.5519 43C84.5714 43 84.5909 43 84.6104 43C84.6298 43 84.6493 43 84.6686 43C84.688 43 84.7074 43 84.7267 43C84.746 43 84.7653 43 84.7845 43C84.8037 43 84.8229 43 84.8421 43C84.8612 43 84.8803 43 84.8994 43C84.9185 43 84.9376 43 84.9566 43C84.9756 43 84.9946 43 85.0135 43C85.0324 43 85.0513 43 85.0702 43C85.0891 43 85.1079 43 85.1267 43C85.1455 43 85.1643 43 85.183 43C85.2017 43 85.2204 43 85.2391 43C85.2577 43 85.2763 43 85.2949 43C85.3135 43 85.3321 43 85.3506 43C85.3691 43 85.3876 43 85.406 43C85.4245 43 85.4429 43 85.4613 43C85.4796 43 85.498 43 85.5163 43C85.5346 43 85.5529 43 85.5711 43C85.5894 43 85.6076 43 85.6257 43C85.6439 43 85.6621 43 85.6802 43C85.6983 43 85.7164 43 85.7344 43C85.7525 43 85.7705 43 85.7884 43C85.8064 43 85.8244 43 85.8423 43C85.8602 43 85.8781 43 85.8959 43C85.9138 43 85.9316 43 85.9494 43C85.9672 43 85.9849 43 86.0026 43C86.0204 43 86.038 43 86.0557 43C86.0734 43 86.091 43 86.1086 43C86.1262 43 86.1438 43 86.1613 43C86.1788 43 86.1963 43 86.2138 43C86.2313 43 86.2487 43 86.2661 43C86.2835 43 86.3009 43 86.3183 43C86.3356 43 86.3529 43 86.3702 43C86.3875 43 86.4048 43 86.422 43C86.4392 43 86.4564 43 86.4736 43C86.4908 43 86.5079 43 86.5251 43C86.5422 43 86.5592 43 86.5763 43C86.5934 43 86.6104 43 86.6274 43C86.6444 43 86.6614 43 86.6783 43C86.6952 43 86.7122 43 86.729 43C86.7459 43 86.7628 43 86.7796 43C86.7964 43 86.8132 43 86.83 43C86.8468 43 86.8635 43 86.8802 43C86.897 43 86.9137 43 86.9303 43C86.947 43 86.9636 43 86.9802 43C86.9968 43 87.0134 43 87.03 43C87.0465 43 87.0631 43 87.0796 43C87.0961 43 87.1125 43 87.129 43C87.1454 43 87.1619 43 87.1783 43C87.1947 43 87.211 43 87.2274 43C87.2437 43 87.26 43 87.2763 43C87.2926 43 87.3089 43 87.3251 43C87.3414 43 87.3576 43 87.3738 43C87.39 43 87.4062 43 87.4223 43C87.4384 43 87.4546 43 87.4707 43C87.4868 43 87.5028 43 87.5189 43C87.5349 43 87.5509 43 87.5669 43C87.5829 43 87.5989 43 87.6149 43C87.6308 43 87.6467 43 87.6626 43C87.6785 43 87.6944 43 87.7103 43C87.7261 43 87.742 43 87.7578 43C87.7736 43 87.7894 43 87.8051 43C87.8209 43 87.8366 43 87.8524 43C87.8681 43 87.8838 43 87.8995 43C87.9151 43 87.9308 43 87.9464 43C87.962 43 87.9777 43 87.9932 43C88.0088 43 88.0244 43 88.0399 43C88.0555 43 88.071 43 88.0865 43C88.102 43 88.1175 43 88.1329 43C88.1484 43 88.1638 43 88.1792 43C88.1947 43 88.2101 43 88.2254 43C88.2408 43 88.2562 43 88.2715 43C88.2868 43 88.3021 43 88.3174 43C88.3327 43 88.348 43 88.3632 43C88.3785 43 88.3937 43 88.4089 43C88.4242 43 88.4394 43 88.4545 43C88.4697 43 88.4849 43 88.5 43C88.5151 43 88.5303 43 88.5454 43C88.5605 43 88.5755 43 88.5906 43C88.6057 43 88.6207 43 88.6357 43C88.6507 43 88.6658 43 88.6807 43C88.6957 43 88.7107 43 88.7257 43C88.7406 43 88.7555 43 88.7705 43C88.7854 43 88.8003 43 88.8152 43C88.83 43 88.8449 43 88.8597 43C88.8746 43 88.8894 43 88.9042 43C88.919 43 88.9338 43 88.9486 43C88.9634 43 88.9782 43 88.9929 43C89.0077 43 89.0224 43 89.0371 43C89.0518 43 89.0665 43 89.0812 43C89.0959 43 89.1106 43 89.1252 43C89.1399 43 89.1545 43 89.1691 43C89.1837 43 89.1983 43 89.2129 43C89.2275 43 89.2421 43 89.2566 43C89.2712 43 89.2857 43 89.3003 43C89.3148 43 89.3293 43 89.3438 43C89.3583 43 89.3728 43 89.3873 43C89.4018 43 89.4162 43 89.4307 43C89.4451 43 89.4595 43 89.4739 43C89.4884 43 89.5028 43 89.5172 43C89.5315 43 89.5459 43 89.5603 43C89.5746 43 89.589 43 89.6033 43C89.6177 43 89.632 43 89.6463 43C89.6606 43 89.6749 43 89.6892 43C89.7035 43 89.7178 43 89.732 43C89.7463 43 89.7605 43 89.7748 43C89.789 43 89.8032 43 89.8174 43C89.8317 43 89.8459 43 89.8601 43C89.8742 43 89.8884 43 89.9026 43C89.9168 43 89.9309 43 89.9451 43C89.9592 43 89.9733 43 89.9875 43C90.0016 43 90.0157 43 90.0298 43C90.0439 43 90.058 43 90.0721 43C90.0862 43 90.1002 43 90.1143 43C90.1284 43 90.1424 43 90.1565 43C90.1705 43 90.1845 43 90.1985 43C90.2126 43 90.2266 43 90.2406 43C90.2546 43 90.2686 43 90.2826 43C90.2966 43 90.3105 43 90.3245 43C90.3385 43 90.3524 43 90.3664 43C90.3803 43 90.3943 43 90.4082 43C90.4221 43 90.4361 43 90.45 43C90.4639 43 90.4778 43 90.4917 43C90.5056 43 90.5195 43 90.5334 43C90.5473 43 90.5612 43 90.575 43C90.5889 43 90.6028 43 90.6166 43C90.6305 43 90.6443 43 90.6582 43C90.672 43 90.6859 43 90.6997 43C90.7135 43 90.7274 43 90.7412 43C90.755 43 90.7688 43 90.7826 43C90.7964 43 90.8102 43 90.824 43C90.8378 43 90.8516 43 90.8654 43C90.8792 43 90.8929 43 90.9067 43C90.9205 43 90.9342 43 90.948 43C90.9618 43 90.9755 43 90.9893 43C91.003 43 91.0168 43 91.0305 43C91.0443 43 91.058 43 91.0717 43C91.0855 43 91.0992 43 91.1129 43C91.1266 43 91.1404 43 91.1541 43C91.1678 43 91.1815 43 91.1952 43C91.2089 43 91.2226 43 91.2363 43C91.25 43 91.2637 43 91.2774 43C91.2911 43 91.3048 43 91.3185 43C91.3322 43 91.3459 43 91.3596 43C91.3733 43 91.3869 43 91.4006 43C91.4143 43 91.428 43 91.4416 43C91.4553 43 91.469 43 91.4827 43C91.4963 43 91.51 43 91.5237 43C91.5373 43 91.551 43 91.5647 43C91.5783 43 91.592 43 91.6057 43C91.6193 43 91.633 43 91.6466 43C91.6603 43 91.674 43 91.6876 43C91.7013 43 91.7149 43 91.7286 43C91.7423 43 91.7559 43 91.7696 43C91.7832 43 91.7969 43 91.8105 43C91.8242 43 91.8379 43 91.8515 43C91.8652 43 91.8788 43 91.8925 43C91.9061 43 91.9198 43 91.9335 43C91.9471 43 91.9608 43 91.9744 43C91.9881 43 92.0018 43 92.0154 43C92.0291 43 92.0428 43 92.0564 43C92.0701 43 92.0838 43 92.0974 43C92.1111 43 92.1248 43 92.1385 43C92.1521 43 92.1658 43 92.1795 43C92.1932 43 92.2068 43 92.2205 43C92.2342 43 92.2479 43 92.2616 43C92.2753 43 92.289 43 92.3027 43C92.3164 43 92.3301 43 92.3438 43C92.3575 43 92.3712 43 92.3849 43C92.3986 43 92.4123 43 92.426 43C92.4397 43 92.4534 43 92.4672 43C92.4809 43 92.4946 43 92.5084 43C92.5221 43 92.5358 43 92.5496 43C92.5633 43 92.577 43 92.5908 43C92.6045 43 92.6183 43 92.6321 43C92.6458 43 92.6596 43 92.6734 43C92.6871 43 92.7009 43 92.7147 43C92.7285 43 92.7422 43 92.756 43C92.7698 43 92.7836 43 92.7974 43C92.8112 43 92.825 43 92.8389 43C92.8527 43 92.8665 43 92.8803 43C92.8942 43 92.908 43 92.9218 43C92.9357 43 92.9495 43 92.9634 43C92.9772 43 92.9911 43 93.005 43C93.0188 43 93.0327 43 93.0466 43C93.0605 43 93.0744 43 93.0883 43C93.1022 43 93.1161 43 93.13 43C93.1439 43 93.1578 43 93.1718 43C93.1857 43 93.1996 43 93.2136 43C93.2275 43 93.2415 43 93.2555 43C93.2694 43 93.2834 43 93.2974 43C93.3114 43 93.3254 43 93.3394 43C93.3534 43 93.3674 43 93.3814 43C93.3954 43 93.4094 43 93.4235 43C93.4375 43 93.4516 43 93.4656 43C93.4797 43 93.4938 43 93.5078 43C93.5219 43 93.536 43 93.5501 43C93.5642 43 93.5783 43 93.5924 43C93.6066 43 93.6207 43 93.6348 43C93.649 43 93.6631 43 93.6773 43C93.6915 43 93.7056 43 93.7198 43C93.734 43 93.7482 43 93.7624 43C93.7766 43 93.7908 43 93.8051 43C93.8193 43 93.8336 43 93.8478 43C93.8621 43 93.8763 43 93.8906 43C93.9049 43 93.9192 43 93.9335 43C93.9478 43 93.9621 43 93.9765 43C93.9908 43 94.0051 43 94.0195 43C94.0339 43 94.0482 43 94.0626 43C94.077 43 94.0914 43 94.1058 43C94.1202 43 94.1347 43 94.1491 43C94.1635 43 94.178 43 94.1925 43C94.2069 43 94.2214 43 94.2359 43C94.2504 43 94.2649 43 94.2794 43C94.294 43 94.3085 43 94.3231 43C94.3376 43 94.3522 43 94.3668 43C94.3814 43 94.396 43 94.4106 43C94.4252 43 94.4398 43 94.4545 43C94.4691 43 94.4838 43 94.4984 43C94.5131 43 94.5278 43 94.5425 43C94.5572 43 94.572 43 94.5867 43C94.6014 43 94.6162 43 94.631 43C94.6458 43 94.6605 43 94.6753 43C94.6902 43 94.705 43 94.7198 43C94.7347 43 94.7495 43 94.7644 43C94.7793 43 94.7942 43 94.8091 43C94.824 43 94.8389 43 94.8539 43C94.8688 43 94.8838 43 94.8988 43C94.9137 43 94.9287 43 94.9438 43C94.9588 43 94.9738 43 94.9889 43C95.0039 43 95.019 43 95.0341 43C95.0492 43 95.0643 43 95.0794 43C95.0946 43 95.1097 43 95.1249 43C95.1401 43 95.1552 43 95.1705 43C95.1857 43 95.2009 43 95.2161 43C95.2314 43 95.2467 43 95.2619 43C95.2772 43 95.2925 43 95.3079 43C95.3232 43 95.3385 43 95.3539 43C95.3693 43 95.3847 43 95.4001 43C95.4155 43 95.4309 43 95.4464 43C95.4618 43 95.4773 43 95.4928 43C95.5083 43 95.5238 43 95.5393 43C95.5549 43 95.5704 43 95.586 43C95.6016 43 95.6172 43 95.6328 43C95.6484 43 95.6641 43 95.6797 43C95.6954 43 95.7111 43 95.7268 43C95.7425 43 95.7583 43 95.774 43C95.7898 43 95.8055 43 95.8214 43C95.8372 43 95.853 43 95.8688 43C95.8847 43 95.9006 43 95.9164 43C95.9323 43 95.9483 43 95.9642 43C95.9801 43 95.9961 43 96.0121 43C96.0281 43 96.0441 43 96.0602 43C96.0762 43 96.0923 43 96.1083 43C96.1244 43 96.1405 43 96.1567 43C96.1728 43 96.189 43 96.2052 43C96.2213 43 96.2376 43 96.2538 43C96.27 43 96.2863 43 96.3026 43C96.3189 43 96.3352 43 96.3515 43C96.3679 43 96.3842 43 96.4006 43C96.417 43 96.4334 43 96.4499 43C96.4663 43 96.4828 43 96.4993 43C96.5158 43 96.5323 43 96.5488 43C96.5654 43 96.5819 43 96.5985 43C96.6151 43 96.6318 43 96.6484 43C96.6651 43 96.6818 43 96.6985 43C96.7152 43 96.7319 43 96.7487 43C96.7655 43 96.7822 43 96.7991 43C96.8159 43 96.8327 43 96.8496 43C96.8665 43 96.8834 43 96.9003 43C96.9173 43 96.9342 43 96.9512 43C96.9682 43 96.9852 43 97.0023 43C97.0193 43 97.0364 43 97.0535 43C97.0706 43 97.0877 43 97.1049 43C97.1221 43 97.1393 43 97.1565 43C97.1737 43 97.1909 43 97.2082 43C97.2255 43 97.2428 43 97.2602 43C97.2775 43 97.2949 43 97.3123 43C97.3297 43 97.3471 43 97.3646 43C97.382 43 97.3995 43 97.4171 43C97.4346 43 97.4521 43 97.4697 43C97.4873 43 97.5049 43 97.5226 43C97.5402 43 97.5579 43 97.5756 43C97.5933 43 97.6111 43 97.6289 43C97.6466 43 97.6644 43 97.6823 43C97.7001 43 97.718 43 97.7359 43C97.7538 43 97.7717 43 97.7897 43C97.8077 43 97.8257 43 97.8437 43C97.8617 43 97.8798 43 97.8979 43C97.916 43 97.9341 43 97.9523 43C97.9705 43 97.9887 43 98.0069 43C98.0251 43 98.0434 43 98.0617 43C98.08 43 98.0983 43 98.1167 43C98.1351 43 98.1535 43 98.1719 43C98.1904 43 98.2088 43 98.2273 43C98.2458 43 98.2644 43 98.283 43C98.3015 43 98.3201 43 98.3388 43C98.3574 43 98.3761 43 98.3948 43C98.4135 43 98.4323 43 98.4511 43C98.4699 43 98.4887 43 98.5075 43C98.5264 43 98.5453 43 98.5642 43C98.5831 43 98.6021 43 98.6211 43C98.6401 43 98.6591 43 98.6782 43C98.6973 43 98.7164 43 98.7355 43C98.7547 43 98.7739 43 98.7931 43C98.8123 43 98.8316 43 98.8509 43C98.8702 43 98.8895 43 98.9089 43C98.9282 43 98.9476 43 98.9671 43C98.9865 43 99.006 43 99.0255 43C99.0451 43 99.0646 43 99.0842 43C99.1038 43 99.1234 43 99.1431 43C99.1628 43 99.1825 43 99.2022 43C99.222 43 99.2418 43 99.2616 43C99.2814 43 99.3013 43 99.3212 43C99.3411 43 99.3611 43 99.3811 43C99.401 43 99.4211 43 99.4411 43C99.4612 43 99.4813 43 99.5014 43C99.5216 43 99.5418 43 99.562 43C99.5822 43 99.6025 43 99.6228 43C99.6431 43 99.6634 43 99.6838 43C99.7042 43 99.7246 43 99.7451 43C99.7656 43 99.7861 43 99.8066 43C99.8272 43 99.8478 43 99.8684 43C99.889 43 99.9097 43 99.9304 43C99.9511 43 99.9719 43 99.9927 43C100.013 43 100.034 43 100.055 43C100.076 43 100.097 43 100.118 43C100.139 43 100.16 43 100.181 43C100.202 43 100.223 43 100.244 43C100.265 43 100.287 43 100.308 43C100.329 43 100.35 43 100.372 43C100.393 43 100.414 43 100.436 43C100.457 43 100.479 43 100.5 43L100.5 44Z" fill="black"/>
<path d="M78.1713 23.6216L69.2929 32.5H59.5H59V33V72.5H20V33V32.5H19.5H9.70711L0.82874 23.6216L19.6261 13.5H59.3739L78.1713 23.6216Z" stroke="black"/>
<path d="M337.171 23.6216L328.293 32.5H318.5H318V33V72.5H279V33V32.5H278.5H268.707L259.829 23.6216L278.626 13.5H318.374L337.171 23.6216Z" stroke="black"/>
<circle cx="49" cy="53" r="10" fill="#D9D9D9"/>
<circle cx="25" cy="39" r="5" fill="#D9D9D9"/>
<circle cx="42" cy="46" r="5" fill="#D9D9D9"/>
</svg>
